<svg width="56" height="65" viewBox="0 0 56 65" fill="none" xmlns="http://www.w3.org/2000/svg">
<path d="M41.9583 44.1667H11.0416C10.456 44.1667 9.89426 44.3994 9.48012 44.8135C9.06598 45.2277 8.83331 45.7894 8.83331 46.3751C8.83331 46.9607 9.06598 47.5224 9.48012 47.9366C9.89426 48.3507 10.456 48.5834 11.0416 48.5834H41.9583C42.544 48.5834 43.1057 48.3507 43.5198 47.9366C43.934 47.5224 44.1666 46.9607 44.1666 46.3751C44.1666 45.7894 43.934 45.2277 43.5198 44.8135C43.1057 44.3994 42.544 44.1667 41.9583 44.1667ZM19.2346 17.0263L24.2916 11.9471V37.5417C24.2916 38.1274 24.5243 38.6891 24.9384 39.1032C25.3526 39.5174 25.9143 39.7501 26.5 39.7501C27.0857 39.7501 27.6474 39.5174 28.0615 39.1032C28.4756 38.6891 28.7083 38.1274 28.7083 37.5417V11.9471L33.7654 17.0263C33.9707 17.2333 34.2149 17.3976 34.484 17.5097C34.7531 17.6218 35.0418 17.6795 35.3333 17.6795C35.6248 17.6795 35.9135 17.6218 36.1826 17.5097C36.4517 17.3976 36.6959 17.2333 36.9012 17.0263C37.1082 16.821 37.2725 16.5768 37.3846 16.3077C37.4967 16.0386 37.5544 15.7499 37.5544 15.4584C37.5544 15.1669 37.4967 14.8782 37.3846 14.6091C37.2725 14.34 37.1082 14.0958 36.9012 13.8905L28.0679 5.05714C27.8579 4.85609 27.6102 4.69849 27.3391 4.59339C26.8015 4.37252 26.1985 4.37252 25.6608 4.59339C25.3897 4.69849 25.1421 4.85609 24.9321 5.05714L16.0987 13.8905C15.8928 14.0964 15.7295 14.3408 15.6181 14.6098C15.5066 14.8789 15.4493 15.1672 15.4493 15.4584C15.4493 15.7496 15.5066 16.0379 15.6181 16.3069C15.7295 16.576 15.8928 16.8204 16.0987 17.0263C16.3046 17.2322 16.5491 17.3955 16.8181 17.507C17.0871 17.6184 17.3755 17.6758 17.6666 17.6758C17.9578 17.6758 18.2462 17.6184 18.5152 17.507C18.7842 17.3955 19.0287 17.2322 19.2346 17.0263Z" fill="white"/>
</svg>
