<svg width="305" height="29" viewBox="0 0 305 29" fill="none" xmlns="http://www.w3.org/2000/svg">
<path d="M27.1064 17.5425C27.1064 17.645 27.0771 17.7646 27.0186 17.9014C26.9551 18.0625 26.772 18.2139 26.4692 18.3555C26.1763 18.4873 25.9272 18.5532 25.7222 18.5532H25.4512C24.9873 18.5532 24.6431 18.5215 24.4185 18.458C23.73 18.2773 22.8853 18.187 21.8843 18.187C21.6841 18.187 21.479 18.1943 21.269 18.209C21.0591 18.2236 20.8418 18.248 20.6172 18.2822C20.1582 18.3408 19.77 18.4312 19.4526 18.5532C18.8569 18.7827 18.4834 18.9878 18.332 19.1685C18.1465 19.3931 17.9976 19.5469 17.8853 19.6299C17.7729 19.7178 17.6069 19.7617 17.3872 19.7617C17.0063 19.7617 16.8159 19.5933 16.8159 19.2563C16.8159 18.8853 16.9014 18.585 17.0723 18.3555C17.3408 17.9844 17.6631 17.6743 18.0391 17.4253C18.2295 17.2983 18.4492 17.1641 18.6982 17.0225C18.9521 16.876 19.2402 16.7197 19.5625 16.5537C19.7969 16.4365 20.0337 16.312 20.2729 16.1802C20.5122 16.0435 20.7295 15.8823 20.9248 15.6968C21.1006 15.5405 21.2788 15.3794 21.4595 15.2134C21.645 15.0425 21.833 14.8716 22.0234 14.7007C22.4092 14.3491 22.7192 14.0171 22.9536 13.7046C23.2026 13.3823 23.4077 13.0698 23.5688 12.7671C23.7349 12.4595 23.8179 12.1519 23.8179 11.8442C23.8179 11.6196 23.7227 11.3853 23.5322 11.1411C23.3467 10.897 23.1123 10.6895 22.8291 10.5186C22.5605 10.3525 22.3115 10.2695 22.082 10.2695C21.8037 10.2695 21.4131 10.4209 20.9102 10.7236C20.6611 10.875 20.4365 11.0215 20.2363 11.1631C20.041 11.2998 19.8701 11.4365 19.7236 11.5732C19.6699 11.6221 19.6138 11.6758 19.5552 11.7344C19.5015 11.7881 19.4478 11.8467 19.394 11.9102C19.3403 11.9736 19.2866 12.0273 19.2329 12.0713C19.1792 12.1152 19.1182 12.1494 19.0498 12.1738C18.9863 12.1982 18.9106 12.2178 18.8228 12.2324C18.7397 12.2422 18.6396 12.2471 18.5225 12.2471C18.4297 12.2471 18.3271 12.1396 18.2148 11.9248C18.1123 11.7148 18.061 11.5488 18.061 11.4268C18.061 11.3047 18.0952 11.2144 18.1636 11.1558C18.2466 11.0874 18.3613 11.0044 18.5078 10.9067C18.6592 10.8042 18.8154 10.6968 18.9766 10.5845C19.2158 10.4136 19.438 10.2598 19.6431 10.123C19.853 9.98145 20.0483 9.85449 20.229 9.74219C20.4146 9.62988 20.6001 9.53223 20.7856 9.44922C20.9761 9.36133 21.1738 9.28564 21.3789 9.22217C21.6865 9.12939 22.1162 9.08301 22.668 9.08301C23.1514 9.08301 23.6104 9.27832 24.0449 9.66895C24.4795 10.0596 24.8408 10.5161 25.1289 11.0386C25.3047 11.3901 25.3926 11.5879 25.3926 11.6318C25.3926 12.0176 25.2314 12.4766 24.9092 13.0088C24.7529 13.2773 24.5771 13.541 24.3818 13.7998C24.1914 14.0586 23.9839 14.3149 23.7593 14.5688C23.3198 15.0669 22.9194 15.4697 22.5581 15.7773C21.8745 16.373 21.23 16.8271 20.6245 17.1396C20.7515 17.1299 20.9102 17.1226 21.1006 17.1177C21.291 17.1128 21.5181 17.1104 21.7817 17.1104C22.2993 17.1104 23.0684 17.1396 24.0889 17.1982C24.2256 17.208 24.3672 17.2178 24.5137 17.2275C24.6602 17.2324 24.8115 17.2397 24.9678 17.2495C25.2803 17.2642 25.5269 17.2715 25.7075 17.2715C25.8296 17.2715 25.9932 17.2324 26.1982 17.1543C26.4033 17.0762 26.5547 17.0371 26.6523 17.0371C26.7354 17.0371 26.8306 17.0981 26.938 17.2202C27.0503 17.3472 27.1064 17.4546 27.1064 17.5425ZM38.2905 13.2871C38.2905 13.9219 38.0806 14.564 37.6606 15.2134C37.2407 15.8628 36.6938 16.4585 36.02 17.0005C35.356 17.5425 34.6504 17.9941 33.9033 18.3555C33.1611 18.7119 32.4849 18.9365 31.8745 19.0293C31.1177 19.1318 30.5586 19.1831 30.1973 19.1831C29.4209 19.1831 28.8179 18.917 28.3882 18.3848C27.9634 17.8525 27.751 17.1885 27.751 16.3926C27.751 15.7773 27.873 15.1108 28.1172 14.3931C28.3662 13.6753 28.7056 12.999 29.1353 12.3643C29.5698 11.7246 30.0337 11.2119 30.5269 10.8262C31.1079 10.3623 31.728 9.96924 32.3872 9.64697C33.0464 9.32471 33.6714 9.16357 34.2622 9.16357C34.7407 9.16357 35.2363 9.27832 35.749 9.50781C36.2666 9.7373 36.7305 10.0303 37.1406 10.3867C37.3799 10.6016 37.5337 10.748 37.6021 10.8262C38.061 11.4023 38.2905 12.2227 38.2905 13.2871ZM37.0527 13.5215C37.0527 13.2432 37.0063 12.9185 36.9136 12.5474C36.8257 12.1665 36.7109 11.8979 36.5693 11.7417C36.4766 11.6294 36.3765 11.5171 36.269 11.4048C36.1665 11.2876 36.0566 11.168 35.9395 11.0459C35.7051 10.8066 35.5098 10.6528 35.3535 10.5845C35.2412 10.7261 35.0654 10.7969 34.8262 10.7969C34.792 10.7969 34.6992 10.7432 34.5479 10.6357C34.3965 10.5234 34.2549 10.4673 34.123 10.4673C33.8398 10.4673 33.5542 10.499 33.2661 10.5625C32.9634 10.6211 32.729 10.709 32.563 10.8262C32.2944 11.002 31.9893 11.2412 31.6475 11.5439C30.9443 12.1641 30.356 12.8623 29.8823 13.6387C29.4087 14.4102 29.1719 15.2012 29.1719 16.0117C29.1719 16.3389 29.2109 16.6514 29.2891 16.9492C29.3672 17.2568 29.5039 17.4692 29.6992 17.5864C30.1143 17.8403 30.583 17.9673 31.1055 17.9673C31.6182 17.9673 32.27 17.7817 33.061 17.4106C33.564 17.1567 34.0645 16.8564 34.5625 16.5098C34.7285 16.3877 34.8994 16.2559 35.0752 16.1143C35.2559 15.9678 35.439 15.8091 35.6245 15.6382C36.0054 15.2964 36.3374 14.9351 36.6206 14.5542C36.9087 14.1636 37.0527 13.8193 37.0527 13.5215ZM49.0205 17.5425C49.0205 17.645 48.9912 17.7646 48.9326 17.9014C48.8691 18.0625 48.686 18.2139 48.3833 18.3555C48.0903 18.4873 47.8413 18.5532 47.6362 18.5532H47.3652C46.9014 18.5532 46.5571 18.5215 46.3325 18.458C45.644 18.2773 44.7993 18.187 43.7983 18.187C43.5981 18.187 43.3931 18.1943 43.1831 18.209C42.9731 18.2236 42.7559 18.248 42.5312 18.2822C42.0723 18.3408 41.6841 18.4312 41.3667 18.5532C40.771 18.7827 40.3975 18.9878 40.2461 19.1685C40.0605 19.3931 39.9116 19.5469 39.7993 19.6299C39.687 19.7178 39.521 19.7617 39.3013 19.7617C38.9204 19.7617 38.73 19.5933 38.73 19.2563C38.73 18.8853 38.8154 18.585 38.9863 18.3555C39.2549 17.9844 39.5771 17.6743 39.9531 17.4253C40.1436 17.2983 40.3633 17.1641 40.6123 17.0225C40.8662 16.876 41.1543 16.7197 41.4766 16.5537C41.7109 16.4365 41.9478 16.312 42.187 16.1802C42.4263 16.0435 42.6436 15.8823 42.8389 15.6968C43.0146 15.5405 43.1929 15.3794 43.3735 15.2134C43.5591 15.0425 43.7471 14.8716 43.9375 14.7007C44.3232 14.3491 44.6333 14.0171 44.8677 13.7046C45.1167 13.3823 45.3218 13.0698 45.4829 12.7671C45.6489 12.4595 45.7319 12.1519 45.7319 11.8442C45.7319 11.6196 45.6367 11.3853 45.4463 11.1411C45.2607 10.897 45.0264 10.6895 44.7432 10.5186C44.4746 10.3525 44.2256 10.2695 43.9961 10.2695C43.7178 10.2695 43.3271 10.4209 42.8242 10.7236C42.5752 10.875 42.3506 11.0215 42.1504 11.1631C41.9551 11.2998 41.7842 11.4365 41.6377 11.5732C41.584 11.6221 41.5278 11.6758 41.4692 11.7344C41.4155 11.7881 41.3618 11.8467 41.3081 11.9102C41.2544 11.9736 41.2007 12.0273 41.147 12.0713C41.0933 12.1152 41.0322 12.1494 40.9639 12.1738C40.9004 12.1982 40.8247 12.2178 40.7368 12.2324C40.6538 12.2422 40.5537 12.2471 40.4365 12.2471C40.3438 12.2471 40.2412 12.1396 40.1289 11.9248C40.0264 11.7148 39.9751 11.5488 39.9751 11.4268C39.9751 11.3047 40.0093 11.2144 40.0776 11.1558C40.1606 11.0874 40.2754 11.0044 40.4219 10.9067C40.5732 10.8042 40.7295 10.6968 40.8906 10.5845C41.1299 10.4136 41.3521 10.2598 41.5571 10.123C41.7671 9.98145 41.9624 9.85449 42.1431 9.74219C42.3286 9.62988 42.5142 9.53223 42.6997 9.44922C42.8901 9.36133 43.0879 9.28564 43.293 9.22217C43.6006 9.12939 44.0303 9.08301 44.582 9.08301C45.0654 9.08301 45.5244 9.27832 45.959 9.66895C46.3936 10.0596 46.7549 10.5161 47.043 11.0386C47.2188 11.3901 47.3066 11.5879 47.3066 11.6318C47.3066 12.0176 47.1455 12.4766 46.8232 13.0088C46.667 13.2773 46.4912 13.541 46.2959 13.7998C46.1055 14.0586 45.8979 14.3149 45.6733 14.5688C45.2339 15.0669 44.8335 15.4697 44.4722 15.7773C43.7886 16.373 43.144 16.8271 42.5386 17.1396C42.6655 17.1299 42.8242 17.1226 43.0146 17.1177C43.2051 17.1128 43.4321 17.1104 43.6958 17.1104C44.2134 17.1104 44.9824 17.1396 46.0029 17.1982C46.1396 17.208 46.2812 17.2178 46.4277 17.2275C46.5742 17.2324 46.7256 17.2397 46.8818 17.2495C47.1943 17.2642 47.4409 17.2715 47.6216 17.2715C47.7437 17.2715 47.9072 17.2324 48.1123 17.1543C48.3174 17.0762 48.4688 17.0371 48.5664 17.0371C48.6494 17.0371 48.7446 17.0981 48.8521 17.2202C48.9644 17.3472 49.0205 17.4546 49.0205 17.5425ZM59.6113 16.8247C59.6113 17.0151 59.5771 17.1299 59.5088 17.1689C59.2451 17.3057 58.9521 17.4058 58.6299 17.4692C58.3076 17.5327 57.9756 17.5889 57.6338 17.6377C57.2969 17.6816 56.96 17.7329 56.623 17.7915C56.291 17.8501 55.9785 17.9429 55.6855 18.0698C55.6855 18.1187 55.6904 18.1895 55.7002 18.2822C55.71 18.375 55.7148 18.4482 55.7148 18.502C55.7148 18.7559 55.395 18.8828 54.7554 18.8828C54.6968 18.8779 54.6431 18.8511 54.5942 18.8022C54.5503 18.7485 54.5063 18.6924 54.4624 18.6338C54.4185 18.5752 54.3745 18.5239 54.3306 18.48C54.2915 18.436 54.2476 18.4189 54.1987 18.4287C54.1255 18.4287 53.8594 18.4946 53.4004 18.6265C53.166 18.6899 52.978 18.7437 52.8364 18.7876C52.6948 18.8267 52.5947 18.8584 52.5361 18.8828C51.9404 19.0732 51.5254 19.1685 51.291 19.1685C51.0908 19.1685 50.9297 19.1123 50.8076 19C50.6367 18.8291 50.5513 18.6631 50.5513 18.502C50.5513 18.2627 50.7319 18.0869 51.0933 17.9746C51.4497 17.8574 51.8745 17.7549 52.3677 17.667C52.6802 17.6035 53 17.5376 53.3271 17.4692C53.6543 17.4009 53.9497 17.3057 54.2134 17.1836C54.2329 16.8857 54.2524 16.6123 54.272 16.3633C54.2915 16.1143 54.3135 15.8848 54.3379 15.6748C54.3623 15.4648 54.3892 15.2183 54.4185 14.9351C54.4526 14.6519 54.4941 14.332 54.543 13.9756C54.6357 13.2676 54.7163 12.6743 54.7847 12.1958C54.8188 11.9565 54.8506 11.7295 54.8799 11.5146C54.9092 11.2949 54.936 11.085 54.9604 10.8848C54.6772 10.8848 54.2842 11.0557 53.7812 11.3975C53.6104 11.5098 53.4565 11.605 53.3198 11.6831C53.1831 11.7563 53.0659 11.8174 52.9683 11.8662C52.7778 11.959 52.502 12.0566 52.1406 12.1592C51.8574 12.2373 51.6182 12.2764 51.4229 12.2764C51.291 12.2764 51.2031 12.2349 51.1592 12.1519C51.1152 12.0688 51.0933 11.9565 51.0933 11.8149C51.0933 11.5806 51.1641 11.4268 51.3057 11.3535C51.4863 11.2607 51.7402 11.146 52.0674 11.0093C52.2383 10.936 52.375 10.8774 52.4775 10.8335C52.5801 10.7896 52.6484 10.7578 52.6826 10.7383C52.8926 10.6357 53.0903 10.5356 53.2759 10.438C53.4663 10.3354 53.647 10.2354 53.8179 10.1377C53.9888 10.04 54.1987 9.91797 54.4478 9.77148C54.6968 9.62012 54.9849 9.44678 55.312 9.25146C55.6978 9.02197 55.9321 8.90723 56.0151 8.90723C56.1714 8.90723 56.3032 9.01221 56.4106 9.22217C56.5278 9.43701 56.5864 9.62744 56.5864 9.79346C56.5864 9.93018 56.5156 10.0693 56.374 10.2109C56.2568 10.7139 56.147 11.2217 56.0444 11.7344C55.9419 12.2471 55.8442 12.7744 55.7515 13.3164C55.5757 14.3955 55.4878 15.2598 55.4878 15.9092C55.4878 15.9385 55.4854 15.9775 55.4805 16.0264C55.4805 16.0752 55.478 16.1313 55.4731 16.1948C55.4731 16.2534 55.4707 16.3169 55.4658 16.3853C55.4658 16.4487 55.4658 16.5098 55.4658 16.5684C55.4658 16.6514 55.4683 16.7246 55.4731 16.7881C55.4829 16.8516 55.4927 16.9077 55.5024 16.9565C55.8589 16.9419 56.3936 16.8369 57.1064 16.6416C57.4336 16.5537 57.707 16.4854 57.9268 16.4365C58.1514 16.3828 58.3247 16.3462 58.4468 16.3267C58.6226 16.3022 58.791 16.2852 58.9521 16.2754C59.1182 16.2607 59.2793 16.2534 59.4355 16.2534C59.5527 16.4829 59.6113 16.6733 59.6113 16.8247ZM79.0864 14.2759C79.0864 14.5786 78.8789 14.9521 78.4639 15.3965C78.3613 15.5088 78.2344 15.6333 78.083 15.77C77.9365 15.9067 77.7803 16.0459 77.6143 16.1875C77.4482 16.3242 77.2798 16.4609 77.1089 16.5977C76.9429 16.7344 76.7866 16.8589 76.6401 16.9712C76.1714 17.3325 75.6807 17.6743 75.168 17.9966C74.6553 18.3188 74.1377 18.6021 73.6152 18.8462C73.0928 19.0903 72.5703 19.2832 72.0479 19.4248C71.5303 19.5664 71.0298 19.6372 70.5464 19.6372C70.019 19.6372 69.5601 19.5615 69.1694 19.4102C68.7788 19.2588 68.4541 19.0439 68.1953 18.7656C67.9414 18.4873 67.751 18.1528 67.624 17.7622C67.4971 17.3667 67.4336 16.9272 67.4336 16.4438C67.4287 16.0044 67.4727 15.5576 67.5654 15.1035C67.6631 14.6494 67.7974 14.2026 67.9683 13.7632C68.1392 13.3237 68.3442 12.9014 68.5835 12.4961C68.8228 12.0859 69.084 11.7075 69.3672 11.3608C69.5381 11.1509 69.731 10.9385 69.9458 10.7236C70.1606 10.5039 70.3853 10.2915 70.6196 10.0864C70.8589 9.88135 71.1006 9.69092 71.3447 9.51514C71.5889 9.33447 71.8281 9.17578 72.0625 9.03906C72.2139 8.95117 72.4067 8.84863 72.6411 8.73145C72.8755 8.61426 73.1221 8.50439 73.3809 8.40186C73.6396 8.29932 73.896 8.21387 74.1499 8.14551C74.4038 8.07227 74.6235 8.03564 74.8091 8.03564C75.1069 8.03564 75.3438 8.05762 75.5195 8.10156C75.7002 8.14062 75.8589 8.20898 75.9956 8.30664C76.0591 8.35547 76.1323 8.43115 76.2153 8.53369C76.3032 8.63135 76.3838 8.74121 76.457 8.86328C76.5352 8.98047 76.5986 9.1001 76.6475 9.22217C76.7012 9.33936 76.728 9.43945 76.728 9.52246C76.728 9.60547 76.689 9.72998 76.6108 9.896C76.5327 10.062 76.4424 10.2354 76.3398 10.416C76.2373 10.5918 76.1348 10.7578 76.0322 10.9141C75.9297 11.0654 75.8516 11.1704 75.7979 11.229C75.5977 11.4487 75.3828 11.5586 75.1533 11.5586C74.958 11.5586 74.8042 11.5 74.6919 11.3828C74.5845 11.2607 74.5308 11.1094 74.5308 10.9287C74.5308 10.8652 74.5674 10.7676 74.6406 10.6357C74.7139 10.499 74.8359 10.3452 75.0068 10.1743C75.1777 10.0034 75.3096 9.84717 75.4023 9.70557C75.5 9.55908 75.561 9.46143 75.5854 9.4126C75.4878 9.34424 75.3682 9.29053 75.2266 9.25146C75.085 9.2124 74.9531 9.19287 74.8311 9.19287C74.6553 9.19287 74.438 9.23438 74.1792 9.31738C73.9204 9.39551 73.6543 9.49805 73.3809 9.625C73.1123 9.75195 72.8486 9.89355 72.5898 10.0498C72.3359 10.2012 72.1211 10.3477 71.9453 10.4893C71.4424 10.9043 70.9785 11.3511 70.5537 11.8296C70.1289 12.3081 69.7773 12.8379 69.499 13.4189C69.3867 13.6582 69.2793 13.9097 69.1768 14.1733C69.0791 14.4321 68.9937 14.6958 68.9204 14.9644C68.8472 15.2329 68.7886 15.5015 68.7446 15.77C68.7056 16.0337 68.686 16.2876 68.686 16.5317C68.686 16.8198 68.7178 17.0884 68.7812 17.3374C68.8496 17.5864 68.9595 17.8013 69.1108 17.9819C69.2622 18.1626 69.46 18.3042 69.7041 18.4067C69.9531 18.5093 70.2583 18.5605 70.6196 18.5605C71.0103 18.5605 71.4106 18.5068 71.8208 18.3994C72.231 18.292 72.6387 18.1479 73.0439 17.9673C73.4541 17.7817 73.8594 17.5718 74.2598 17.3374C74.6602 17.0981 75.0435 16.8491 75.4097 16.5903C75.7808 16.3315 76.1323 16.0728 76.4644 15.814C76.7964 15.5552 77.0991 15.311 77.3726 15.0815C77.4849 14.9888 77.6021 14.8862 77.7241 14.7739C77.8511 14.6616 77.9756 14.5493 78.0977 14.437C78.2197 14.3247 78.3369 14.2124 78.4492 14.1001C78.5664 13.9878 78.6689 13.8853 78.7568 13.7925C78.9766 13.9048 79.0864 14.0659 79.0864 14.2759ZM85.1655 15.7188C84.7749 16.2607 84.377 16.7515 83.9717 17.1909C83.5713 17.6304 83.1733 18.0063 82.7778 18.3188C82.3872 18.6265 82.0039 18.8657 81.6279 19.0366C81.2568 19.2075 80.9102 19.293 80.5879 19.293C80.0654 19.293 79.6528 19.0684 79.3501 18.6191C79.0522 18.1699 78.9033 17.5083 78.9033 16.6343C78.9033 16.146 78.9326 15.6089 78.9912 15.0229C79.0498 14.437 79.1255 13.8438 79.2183 13.2432C79.311 12.6426 79.4136 12.0518 79.5259 11.4707C79.6431 10.8896 79.7603 10.3599 79.8774 9.88135C79.9653 9.51514 80.0532 9.19775 80.1411 8.9292C80.2339 8.66064 80.3315 8.44092 80.4341 8.27002C80.5366 8.09912 80.6465 7.97217 80.7637 7.88916C80.8857 7.80615 81.0225 7.76465 81.1738 7.76465C81.2715 7.76465 81.3594 7.78662 81.4375 7.83057C81.5205 7.87451 81.5913 7.93066 81.6499 7.99902C81.7085 8.06738 81.7524 8.14795 81.7817 8.24072C81.8159 8.32861 81.833 8.41895 81.833 8.51172C81.833 8.59961 81.8086 8.71924 81.7598 8.87061C81.7158 9.01709 81.6572 9.18066 81.584 9.36133C81.5156 9.54199 81.4399 9.73242 81.3569 9.93262C81.2739 10.1328 81.1934 10.3257 81.1152 10.5112C81.0371 10.6919 80.9663 10.8604 80.9028 11.0166C80.8442 11.1729 80.8027 11.2998 80.7783 11.3975C80.7051 11.7148 80.6318 12.0859 80.5586 12.5107C80.4854 12.9307 80.417 13.3677 80.3535 13.8218C80.2949 14.271 80.2461 14.7202 80.207 15.1694C80.168 15.6138 80.1484 16.0215 80.1484 16.3926C80.1484 16.7197 80.1777 16.9907 80.2363 17.2056C80.2949 17.4155 80.3682 17.584 80.4561 17.7109C80.5488 17.833 80.6465 17.9209 80.749 17.9746C80.8564 18.0234 80.9565 18.0479 81.0493 18.0479C81.2202 18.0479 81.4082 18.0039 81.6133 17.916C81.8184 17.8232 82.0332 17.6963 82.2578 17.5352C82.4873 17.374 82.7217 17.186 82.9609 16.9712C83.2051 16.7515 83.4492 16.5146 83.6934 16.2607C83.9375 16.0068 84.1792 15.7407 84.4185 15.4624C84.6577 15.1792 84.8872 14.8936 85.1069 14.6055C85.1899 14.4932 85.2559 14.4077 85.3047 14.3491C85.3535 14.2905 85.3999 14.2612 85.4438 14.2612C85.4976 14.2612 85.5366 14.293 85.561 14.3564C85.5903 14.415 85.605 14.4932 85.605 14.5908C85.605 14.6689 85.5928 14.7568 85.5684 14.8545C85.5439 14.9473 85.5122 15.0449 85.4731 15.1475C85.4341 15.2451 85.3877 15.3428 85.334 15.4404C85.2803 15.5381 85.2241 15.6309 85.1655 15.7188ZM87.7217 8.27734C87.7217 8.59473 87.6387 8.86572 87.4727 9.09033C87.3115 9.31494 87.0747 9.42725 86.7622 9.42725C86.5669 9.42725 86.3496 9.39795 86.1104 9.33936C85.876 9.28076 85.7588 9.18555 85.7588 9.05371C85.7588 8.81445 85.832 8.5874 85.9785 8.37256C86.1299 8.15283 86.3105 7.97461 86.5205 7.83789C86.6914 7.74023 86.8013 7.69141 86.8501 7.69141C87.1284 7.69141 87.3433 7.73047 87.4946 7.80859C87.646 7.88184 87.7217 8.03809 87.7217 8.27734ZM92.519 14.2319V14.2466C92.519 14.354 92.4702 14.4956 92.3726 14.6714C92.2749 14.8472 92.1431 15.0449 91.9771 15.2646C91.8159 15.4844 91.6279 15.7188 91.4131 15.9678C91.1982 16.2168 90.9736 16.4683 90.7393 16.7222C90.4609 17.0151 90.1704 17.2983 89.8677 17.5718C89.5698 17.8403 89.2451 18.1016 88.8936 18.3555C88.21 18.8633 87.5996 19.1172 87.0625 19.1172C86.4717 19.1172 86.0127 18.9194 85.6855 18.5239C85.3584 18.1235 85.1362 17.6401 85.019 17.0737C84.9019 16.5122 84.8433 15.9336 84.8433 15.3379C84.8433 15.0889 84.8726 14.7007 84.9312 14.1733C84.9604 13.9097 84.9897 13.6826 85.019 13.4922C85.0483 13.3018 85.0801 13.1479 85.1143 13.0308C85.1826 12.8013 85.3267 12.6011 85.5464 12.4302C85.771 12.2495 86.0054 12.1592 86.2495 12.1592C86.3813 12.1592 86.4473 12.2837 86.4473 12.5327C86.4473 12.6987 86.4302 12.8867 86.396 13.0967C86.3667 13.3066 86.335 13.5142 86.3008 13.7192C86.2373 14.105 86.1909 14.4517 86.1616 14.7593C86.1323 15.062 86.1177 15.3257 86.1177 15.5503C86.1177 16.0483 86.186 16.5464 86.3228 17.0444C86.4595 17.5571 86.7061 17.8135 87.0625 17.8135C87.4238 17.8135 87.8438 17.6816 88.3223 17.418C88.5615 17.2812 88.8008 17.1299 89.04 16.9639C89.2793 16.7979 89.5186 16.6123 89.7578 16.4072C90.0068 16.2021 90.2412 15.9971 90.4609 15.792C90.6807 15.582 90.9004 15.3672 91.1201 15.1475C91.3398 14.9277 91.5327 14.7227 91.6987 14.5322C91.8696 14.3418 92.0186 14.166 92.1455 14.0049C92.1553 13.9854 92.1748 13.9487 92.2041 13.895C92.2334 13.8413 92.2603 13.8145 92.2847 13.8145L92.2993 13.8218C92.3384 13.8218 92.3677 13.8364 92.3872 13.8657C92.4067 13.8901 92.4287 13.9292 92.4531 13.9829C92.502 14.0903 92.5239 14.1733 92.519 14.2319ZM102.326 12.8916C102.312 13.043 102.287 13.2041 102.253 13.375C102.219 13.541 102.18 13.7192 102.136 13.9097C102.097 14.0952 102.058 14.2954 102.019 14.5103C101.984 14.7202 101.958 14.9424 101.938 15.1768C101.923 15.4307 101.923 15.6724 101.938 15.9019C101.958 16.1265 101.999 16.3291 102.062 16.5098C102.131 16.6855 102.229 16.8296 102.355 16.9419C102.482 17.0493 102.648 17.1128 102.854 17.1323C103.103 17.147 103.361 17.0933 103.63 16.9712C103.898 16.8491 104.167 16.6855 104.436 16.4805C104.704 16.2705 104.965 16.0337 105.219 15.77C105.478 15.5063 105.72 15.2378 105.944 14.9644C106.174 14.686 106.381 14.4175 106.567 14.1587C106.752 13.895 106.906 13.6655 107.028 13.4702C107.053 13.436 107.075 13.4141 107.094 13.4043C107.119 13.3896 107.136 13.3823 107.146 13.3823C107.165 13.3823 107.194 13.4043 107.233 13.4482C107.277 13.4873 107.297 13.5557 107.292 13.6533C107.287 13.7168 107.28 13.7852 107.27 13.8584C107.26 13.9268 107.243 14.0049 107.219 14.0928C107.194 14.1758 107.16 14.271 107.116 14.3784C107.072 14.481 107.011 14.5981 106.933 14.73C106.806 14.9497 106.65 15.1914 106.464 15.4551C106.279 15.7188 106.071 15.9824 105.842 16.2461C105.612 16.5098 105.363 16.7661 105.095 17.0151C104.831 17.2593 104.553 17.4766 104.26 17.667C103.972 17.8525 103.671 17.999 103.359 18.1064C103.051 18.209 102.741 18.2529 102.429 18.2383C102.058 18.209 101.76 18.1016 101.535 17.916C101.315 17.7305 101.147 17.501 101.03 17.2275C100.917 16.9541 100.844 16.6514 100.81 16.3193C100.781 15.9873 100.771 15.6626 100.781 15.3452C100.786 15.2524 100.798 15.1328 100.817 14.9863C100.837 14.8398 100.852 14.6958 100.861 14.5542C100.871 14.4126 100.871 14.2905 100.861 14.188C100.856 14.0854 100.83 14.0317 100.781 14.0269C100.747 14.0269 100.661 14.0903 100.524 14.2173C100.393 14.3442 100.231 14.5151 100.041 14.73C99.8555 14.9399 99.6528 15.1792 99.4331 15.4478C99.2183 15.7163 99.0132 15.9897 98.8179 16.2681C98.7642 16.3462 98.7007 16.4414 98.6274 16.5537C98.5542 16.6611 98.481 16.771 98.4077 16.8833C98.3394 16.9956 98.2734 17.1055 98.21 17.2129C98.1465 17.3154 98.0977 17.4033 98.0635 17.4766C98.0098 17.5938 97.9561 17.7036 97.9023 17.8062C97.8535 17.9038 97.8022 17.9917 97.7485 18.0698C97.6997 18.1431 97.6484 18.2017 97.5947 18.2456C97.5459 18.2847 97.4946 18.3042 97.4409 18.3042H97.4336C97.4043 18.2993 97.3555 18.2847 97.2871 18.2603C97.2188 18.231 97.1504 18.1943 97.082 18.1504C97.0137 18.1064 96.9502 18.0601 96.8916 18.0112C96.8379 17.9575 96.8037 17.9062 96.7891 17.8574C96.7793 17.8135 96.772 17.7549 96.7671 17.6816C96.7622 17.6084 96.7598 17.5156 96.7598 17.4033C96.7598 17.291 96.7622 17.1543 96.7671 16.9932C96.7769 16.8271 96.7866 16.6318 96.7964 16.4072C96.8062 16.1924 96.8135 15.9678 96.8184 15.7334C96.8281 15.499 96.8281 15.2744 96.8184 15.0596C96.8135 14.8447 96.7939 14.6519 96.7598 14.481C96.7305 14.3052 96.6841 14.1685 96.6206 14.0708C96.2104 14.1587 95.7197 14.6567 95.1484 15.5649C94.7676 16.1704 94.4429 16.7148 94.1743 17.1982C93.9058 17.6768 93.7031 18.0845 93.5664 18.4214C93.4834 18.6216 93.4077 18.7852 93.3394 18.9121C93.271 19.0391 93.2026 19.1367 93.1343 19.2051C93.0708 19.2783 93.0049 19.3271 92.9365 19.3516C92.8682 19.3809 92.7925 19.3931 92.7095 19.3882C92.5874 19.3784 92.4897 19.3467 92.4165 19.293C92.3433 19.2393 92.2847 19.166 92.2407 19.0732C92.1968 18.9854 92.1626 18.8828 92.1382 18.7656C92.1187 18.6436 92.0991 18.5093 92.0796 18.3628C92.0552 18.1675 92.043 17.9136 92.043 17.6011C92.043 17.2886 92.0503 16.9639 92.0649 16.627C92.0796 16.29 92.0967 15.9604 92.1162 15.6382C92.1357 15.3159 92.1504 15.0425 92.1602 14.8179C92.1699 14.7104 92.1699 14.5811 92.1602 14.4297C92.1504 14.2783 92.1431 14.1221 92.1382 13.9609C92.1382 13.7998 92.1455 13.646 92.1602 13.4995C92.1748 13.3481 92.2114 13.2212 92.27 13.1187C92.3677 12.9722 92.4849 12.877 92.6216 12.833C92.7583 12.7891 92.9121 12.772 93.083 12.7817C93.2197 12.7964 93.3052 12.8501 93.3394 12.9429C93.3735 13.0356 93.3857 13.1504 93.376 13.2871C93.3662 13.4043 93.354 13.5435 93.3394 13.7046C93.3296 13.8608 93.3149 14.0269 93.2954 14.2026C93.2759 14.3735 93.2563 14.5469 93.2368 14.7227C93.2173 14.8984 93.1978 15.0669 93.1782 15.228C93.1587 15.3745 93.1367 15.5454 93.1123 15.7407C93.0928 15.9312 93.0732 16.1216 93.0537 16.312C93.0391 16.5024 93.0293 16.6807 93.0244 16.8467C93.0244 17.0078 93.0342 17.1299 93.0537 17.2129H93.0684C93.1025 17.2129 93.1465 17.1812 93.2002 17.1177C93.2539 17.0493 93.3149 16.959 93.3833 16.8467C93.4517 16.7295 93.5249 16.5977 93.603 16.4512C93.686 16.2998 93.7715 16.1436 93.8594 15.9824C93.9473 15.8164 94.0352 15.6528 94.123 15.4917C94.2158 15.3257 94.3062 15.1719 94.394 15.0303C94.897 14.1904 95.373 13.5776 95.8223 13.1919C96.2764 12.8013 96.6719 12.6157 97.0088 12.6353C97.1846 12.645 97.3286 12.7061 97.4409 12.8184C97.5532 12.9307 97.6411 13.0698 97.7046 13.2358C97.7729 13.4019 97.8169 13.585 97.8364 13.7852C97.8608 13.9854 97.8706 14.1782 97.8657 14.3638C97.8657 14.4858 97.8608 14.6201 97.8511 14.7666C97.8462 14.9082 97.8389 15.0498 97.8291 15.1914C97.8242 15.333 97.8193 15.4722 97.8145 15.6089C97.8145 15.7407 97.8193 15.8555 97.8291 15.9531C97.9072 15.8945 98.0049 15.7969 98.1221 15.6602C98.2393 15.5186 98.3613 15.3647 98.4883 15.1987C98.6201 15.0327 98.7495 14.8667 98.8765 14.7007C99.0083 14.5298 99.1255 14.3857 99.228 14.2686C99.4575 14.0146 99.6919 13.7656 99.9312 13.5215C100.175 13.2773 100.412 13.0625 100.642 12.877C100.871 12.6865 101.088 12.5352 101.293 12.4229C101.499 12.3105 101.679 12.2568 101.835 12.2617C101.909 12.2666 101.975 12.2935 102.033 12.3423C102.097 12.3862 102.15 12.4399 102.194 12.5034C102.238 12.5669 102.27 12.6353 102.29 12.7085C102.314 12.7769 102.326 12.8379 102.326 12.8916ZM112.844 14.6787C112.844 15.167 112.761 15.6504 112.595 16.1289C112.434 16.6025 112.216 17.0566 111.943 17.4912C111.669 17.9209 111.352 18.3213 110.991 18.6924C110.634 19.0635 110.258 19.3882 109.863 19.6665C109.467 19.9497 109.067 20.1768 108.662 20.3477C108.256 20.5234 107.873 20.6284 107.512 20.6626C107.414 20.6577 107.316 20.6357 107.219 20.5967C107.126 20.5576 107.038 20.5112 106.955 20.4575C106.877 20.4038 106.813 20.3428 106.765 20.2744C106.716 20.2109 106.691 20.1523 106.691 20.0986C106.691 20.0107 106.721 19.9253 106.779 19.8423C106.838 19.7642 106.931 19.6909 107.058 19.6226C107.331 19.6226 107.614 19.5835 107.907 19.5054C108.205 19.4272 108.503 19.3149 108.801 19.1685C109.099 19.022 109.389 18.8462 109.672 18.6411C109.96 18.4312 110.229 18.1968 110.478 17.938C110.688 17.7231 110.874 17.4912 111.035 17.2422C111.201 16.9883 111.34 16.7319 111.452 16.4731C111.564 16.2144 111.65 15.958 111.708 15.7041C111.767 15.4453 111.796 15.2036 111.796 14.979C111.796 14.8765 111.784 14.7812 111.76 14.6934C111.74 14.6055 111.711 14.5322 111.672 14.4736C111.638 14.4102 111.599 14.3613 111.555 14.3271C111.511 14.293 111.467 14.2759 111.423 14.2759C111.169 14.2759 110.896 14.3491 110.603 14.4956C110.31 14.6372 110.014 14.8276 109.716 15.0669C109.418 15.3062 109.128 15.582 108.845 15.8945C108.562 16.207 108.3 16.5342 108.061 16.876C107.827 17.2178 107.622 17.562 107.446 17.9087C107.27 18.2505 107.146 18.5703 107.072 18.8682C107.048 18.9805 107.006 19.0977 106.948 19.2197C106.894 19.3418 106.831 19.4517 106.757 19.5493C106.684 19.647 106.606 19.7227 106.523 19.7764C106.445 19.835 106.369 19.8521 106.296 19.8276C106.086 19.7495 105.981 19.5347 105.981 19.1831C105.981 19.1001 106.003 18.9536 106.047 18.7437C106.096 18.5288 106.162 18.27 106.245 17.9673C106.342 17.5864 106.425 17.2397 106.494 16.9272C106.567 16.6099 106.633 16.2998 106.691 15.9971C106.755 15.6895 106.816 15.377 106.875 15.0596C106.933 14.7373 106.999 14.3784 107.072 13.9829C107.146 13.6069 107.216 13.2529 107.285 12.9209C107.358 12.584 107.436 12.2544 107.519 11.9321C107.602 11.605 107.692 11.2803 107.79 10.958C107.888 10.6309 108 10.2915 108.127 9.93994C108.229 9.64697 108.334 9.40039 108.442 9.2002C108.554 8.99512 108.664 8.8291 108.771 8.70215C108.879 8.57031 108.984 8.4751 109.086 8.4165C109.189 8.35791 109.284 8.32861 109.372 8.32861C109.431 8.32861 109.489 8.33838 109.548 8.35791C109.611 8.37256 109.67 8.4043 109.724 8.45312C109.777 8.49707 109.821 8.56055 109.855 8.64355C109.89 8.72168 109.907 8.82178 109.907 8.94385C109.907 9.10986 109.89 9.27588 109.855 9.44189C109.821 9.60791 109.777 9.77393 109.724 9.93994C109.675 10.1011 109.619 10.2598 109.555 10.416C109.492 10.5723 109.431 10.7236 109.372 10.8701C109.304 11.041 109.221 11.2314 109.123 11.4414C109.025 11.6465 108.928 11.8564 108.83 12.0713C108.732 12.2812 108.64 12.4839 108.552 12.6792C108.469 12.8745 108.403 13.043 108.354 13.1846C108.334 13.2383 108.305 13.3384 108.266 13.4849C108.227 13.6265 108.183 13.7949 108.134 13.9902C108.09 14.1855 108.042 14.3979 107.988 14.6274C107.934 14.8521 107.883 15.0742 107.834 15.2939C107.79 15.5088 107.749 15.7114 107.709 15.9019C107.675 16.0874 107.651 16.2388 107.636 16.356C107.783 16.1216 107.956 15.8799 108.156 15.6309C108.361 15.377 108.581 15.1304 108.815 14.8911C109.05 14.6519 109.294 14.4272 109.548 14.2173C109.802 14.0024 110.053 13.8145 110.302 13.6533C110.556 13.4922 110.8 13.3652 111.035 13.2725C111.269 13.1797 111.484 13.1333 111.679 13.1333C111.752 13.1333 111.828 13.1333 111.906 13.1333C111.984 13.1333 112.058 13.1406 112.126 13.1553C112.194 13.1699 112.255 13.1943 112.309 13.2285C112.368 13.2578 112.417 13.3018 112.456 13.3604C112.514 13.4482 112.568 13.5508 112.617 13.668C112.666 13.7803 112.707 13.8975 112.741 14.0195C112.775 14.1367 112.8 14.2539 112.814 14.3711C112.834 14.4834 112.844 14.5859 112.844 14.6787ZM138.896 17.4546C138.896 17.5522 138.874 17.7134 138.83 17.938C138.806 18.0503 138.652 18.2236 138.369 18.458C138.081 18.6875 137.88 18.8022 137.768 18.8022C137.636 18.8022 137.531 18.7852 137.453 18.751C137.375 18.7168 137.314 18.6631 137.27 18.5898C137.226 18.5166 137.197 18.4238 137.182 18.3115C137.172 18.1992 137.167 18.0625 137.167 17.9014C137.167 17.6182 137.177 17.4204 137.197 17.3081C137.216 17.0884 137.563 16.9785 138.237 16.9785H138.398C138.54 16.9785 138.684 17.0615 138.83 17.2275C138.874 17.2715 138.896 17.3472 138.896 17.4546ZM158.188 18.5166C158.188 18.7119 158.125 18.8779 157.998 19.0146C157.875 19.1562 157.714 19.2271 157.514 19.2271C157.426 19.2271 157.355 19.2075 157.302 19.1685C157.233 19.1147 157.158 19.0439 157.075 18.9561C156.992 18.8633 156.904 18.7485 156.811 18.6118C156.63 18.3335 156.464 18.043 156.313 17.7402C156.167 17.4326 156.047 17.1616 155.954 16.9272C155.93 16.8589 155.903 16.7979 155.874 16.7441C155.849 16.6855 155.822 16.627 155.793 16.5684C155.769 16.5049 155.742 16.439 155.712 16.3706C155.683 16.2974 155.651 16.2095 155.617 16.1069C155.476 15.687 155.373 15.4111 155.31 15.2793C155.241 15.3477 155.175 15.4014 155.112 15.4404C155.048 15.4746 154.98 15.5015 154.907 15.521C154.838 15.5356 154.765 15.5454 154.687 15.5503C154.614 15.5503 154.533 15.5503 154.445 15.5503C154.396 15.5503 154.335 15.5601 154.262 15.5796C154.189 15.5991 154.108 15.6211 154.021 15.6455C153.938 15.6699 153.854 15.6968 153.771 15.7261C153.688 15.7554 153.61 15.7798 153.537 15.7993C153.293 15.8677 153.046 15.9287 152.797 15.9824C152.548 16.0361 152.292 16.0898 152.028 16.1436C151.765 16.1924 151.489 16.2412 151.201 16.29C150.913 16.334 150.607 16.3828 150.285 16.4365C150.139 16.4609 150 16.5562 149.868 16.7222C149.741 16.8931 149.477 17.2593 149.077 17.8208C148.686 18.3774 148.354 18.7852 148.081 19.0439C147.812 19.3027 147.551 19.4321 147.297 19.4321C146.975 19.4321 146.706 19.3687 146.491 19.2417C146.247 19.0854 146.125 18.9194 146.125 18.7437C146.125 18.6509 146.176 18.585 146.279 18.5459C146.386 18.502 146.53 18.4629 146.711 18.4287C146.77 18.4238 146.904 18.3042 147.114 18.0698C147.314 17.8452 147.465 17.6597 147.568 17.5132C147.773 17.2446 147.98 16.959 148.19 16.6562C148.405 16.3486 148.645 16.0044 148.908 15.6235C149.035 15.4282 149.147 15.2598 149.245 15.1182C149.343 14.9766 149.423 14.8569 149.487 14.7593C149.555 14.6616 149.631 14.5518 149.714 14.4297C149.802 14.3076 149.902 14.1709 150.014 14.0195C150.063 13.9512 150.122 13.8682 150.19 13.7705C150.258 13.6729 150.339 13.563 150.432 13.4409C150.524 13.314 150.607 13.2017 150.681 13.104C150.759 13.0063 150.825 12.9185 150.878 12.8403C150.937 12.7622 151.01 12.6646 151.098 12.5474C151.191 12.4302 151.298 12.291 151.42 12.1299C151.459 12.0811 151.535 11.9663 151.647 11.7856C151.765 11.605 151.921 11.356 152.116 11.0386C152.39 10.5845 152.568 10.2524 152.651 10.0425C153.222 8.65576 153.652 7.9624 153.94 7.9624C154.067 7.9624 154.169 7.97461 154.248 7.99902C154.326 8.01855 154.387 8.05518 154.431 8.10889C154.475 8.15771 154.504 8.22607 154.519 8.31396C154.533 8.39697 154.541 8.49951 154.541 8.62158C154.541 8.70459 154.541 8.77783 154.541 8.84131C154.541 8.90479 154.538 8.95605 154.533 8.99512C154.528 9.07324 154.523 9.17334 154.519 9.29541C154.514 9.41748 154.506 9.56152 154.497 9.72754C154.741 10.2402 154.973 10.792 155.192 11.3828C155.305 11.6807 155.422 12.0078 155.544 12.3643C155.671 12.7158 155.805 13.104 155.947 13.5288C156.088 13.9487 156.213 14.3076 156.32 14.6055C156.428 14.9033 156.516 15.145 156.584 15.3306C156.652 15.5161 156.733 15.7285 156.826 15.9678C156.923 16.207 157.038 16.478 157.17 16.7808C157.219 16.8931 157.402 17.1641 157.719 17.5938C158.032 18.0234 158.188 18.3311 158.188 18.5166ZM154.943 14.188C154.855 13.9194 154.76 13.6313 154.658 13.3237C154.555 13.0112 154.448 12.7012 154.335 12.3936C154.228 12.0811 154.116 11.7808 153.999 11.4927C153.886 11.2046 153.774 10.9482 153.662 10.7236C153.388 11.0947 153.129 11.4512 152.885 11.793C152.641 12.1348 152.404 12.479 152.175 12.8257C151.95 13.1675 151.726 13.519 151.501 13.8804C151.281 14.2417 151.057 14.6274 150.827 15.0376C150.881 15.0571 150.93 15.0669 150.974 15.0669C151.047 15.0669 151.14 15.062 151.252 15.0522C151.369 15.0376 151.486 15.0229 151.604 15.0083C151.726 14.9888 151.84 14.9692 151.948 14.9497C152.06 14.9302 152.15 14.9131 152.219 14.8984C152.336 14.8691 152.436 14.8447 152.519 14.8252C152.607 14.8057 152.69 14.7861 152.768 14.7666C152.846 14.7471 152.929 14.7275 153.017 14.708C153.11 14.6836 153.22 14.6567 153.347 14.6274C153.63 14.5542 153.911 14.481 154.189 14.4077C154.467 14.3296 154.719 14.2563 154.943 14.188ZM167.109 14.1001C167.109 14.1733 167.06 14.3003 166.962 14.481C166.87 14.6616 166.738 14.8765 166.567 15.1255C166.401 15.3696 166.201 15.6382 165.966 15.9312C165.737 16.2241 165.488 16.5195 165.219 16.8174C164.951 17.1104 164.667 17.396 164.37 17.6743C164.072 17.9478 163.771 18.1919 163.469 18.4067C163.166 18.6167 162.866 18.7852 162.568 18.9121C162.275 19.0391 161.994 19.1025 161.726 19.1025C161.364 19.1025 161.071 19.0366 160.847 18.9048C160.622 18.7729 160.446 18.5972 160.319 18.3774C160.192 18.1577 160.104 17.9087 160.056 17.6304C160.012 17.3472 159.99 17.0542 159.99 16.7515C159.99 16.5708 160.002 16.3071 160.026 15.9604C160.056 15.6138 160.097 15.2183 160.151 14.7739C160.205 14.3296 160.271 13.8535 160.349 13.3457C160.432 12.833 160.527 12.3252 160.634 11.8223C160.742 11.3193 160.861 10.8359 160.993 10.3721C161.125 9.9082 161.269 9.50049 161.425 9.14893C161.586 8.79248 161.76 8.50928 161.945 8.29932C162.131 8.08447 162.329 7.97705 162.539 7.97705C162.622 7.97705 162.683 8.02588 162.722 8.12354C162.761 8.22119 162.78 8.37744 162.78 8.59229C162.78 8.59717 162.761 8.66309 162.722 8.79004C162.683 8.91211 162.631 9.06836 162.568 9.25879C162.509 9.44434 162.443 9.64941 162.37 9.87402C162.302 10.0986 162.236 10.311 162.172 10.5112C162.109 10.7114 162.053 10.8848 162.004 11.0312C161.96 11.1777 161.933 11.2681 161.923 11.3022C161.65 12.2251 161.438 13.1357 161.286 14.0342C161.14 14.9277 161.066 15.7627 161.066 16.5391C161.066 16.7734 161.093 16.9712 161.147 17.1323C161.201 17.2935 161.271 17.4253 161.359 17.5278C161.452 17.6255 161.56 17.6987 161.682 17.7476C161.804 17.7915 161.933 17.8135 162.07 17.8135C162.26 17.8135 162.47 17.7646 162.7 17.667C162.929 17.5693 163.166 17.4375 163.41 17.2715C163.659 17.1006 163.913 16.9028 164.172 16.6782C164.431 16.4536 164.685 16.2168 164.934 15.9678C165.183 15.7188 165.422 15.4648 165.651 15.2061C165.886 14.9473 166.103 14.6982 166.303 14.459C166.352 14.4004 166.406 14.3418 166.464 14.2832C166.528 14.2246 166.591 14.1709 166.655 14.1221C166.723 14.0684 166.787 14.0269 166.845 13.9976C166.904 13.9634 166.955 13.9463 166.999 13.9463C167.072 13.9463 167.109 13.9976 167.109 14.1001ZM172.097 16.0483C172.097 16.1069 172.072 16.1924 172.023 16.3047C171.979 16.4121 171.921 16.5269 171.848 16.6489C171.779 16.7661 171.706 16.8833 171.628 17.0005C171.555 17.1177 171.489 17.2153 171.43 17.2935C171.235 17.5474 171.008 17.7939 170.749 18.0332C170.495 18.2676 170.229 18.4775 169.951 18.6631C169.672 18.8486 169.389 18.9976 169.101 19.1099C168.818 19.2222 168.547 19.2783 168.288 19.2783C167.893 19.2783 167.551 19.2002 167.263 19.0439C166.979 18.8877 166.745 18.6606 166.56 18.3628C166.379 18.0601 166.245 17.689 166.157 17.2495C166.069 16.8052 166.025 16.2998 166.025 15.7334C166.025 15.3818 166.04 14.9985 166.069 14.5835C166.098 14.1636 166.14 13.7314 166.193 13.2871C166.247 12.8379 166.311 12.3862 166.384 11.9321C166.457 11.478 166.538 11.041 166.625 10.6211C166.713 10.2012 166.806 9.81055 166.904 9.44922C167.001 9.08301 167.102 8.76562 167.204 8.49707C167.312 8.22363 167.417 8.00879 167.519 7.85254C167.626 7.69629 167.729 7.61816 167.827 7.61816C167.944 7.61816 168.044 7.66943 168.127 7.77197C168.215 7.86963 168.286 7.97461 168.339 8.08691C168.286 8.55566 168.183 9.12939 168.032 9.80811C167.885 10.4868 167.709 11.2876 167.504 12.2104C167.446 12.4692 167.395 12.7378 167.351 13.0161C167.312 13.2896 167.277 13.5654 167.248 13.8438C167.224 14.1221 167.204 14.3979 167.189 14.6714C167.175 14.9399 167.167 15.1938 167.167 15.4331C167.167 16.2876 167.277 16.9443 167.497 17.4033C167.722 17.8574 168.098 18.0845 168.625 18.0845C168.874 18.0845 169.121 18.0381 169.365 17.9453C169.609 17.8477 169.841 17.7256 170.061 17.5791C170.285 17.4277 170.498 17.2642 170.698 17.0884C170.898 16.9077 171.083 16.7319 171.254 16.561C171.308 16.5073 171.372 16.439 171.445 16.356C171.523 16.2729 171.596 16.1948 171.665 16.1216C171.738 16.0435 171.804 15.9775 171.862 15.9238C171.921 15.8652 171.96 15.8359 171.979 15.8359C172.058 15.8359 172.097 15.9067 172.097 16.0483ZM184.599 12.7817C184.594 12.9185 184.567 13.0332 184.519 13.126C184.475 13.2188 184.418 13.2944 184.35 13.353C184.282 13.4116 184.206 13.4556 184.123 13.4849C184.04 13.5093 183.959 13.5215 183.881 13.5215C183.813 13.5215 183.73 13.5093 183.632 13.4849C183.54 13.4604 183.444 13.4458 183.347 13.4409C183.156 13.4409 182.927 13.4946 182.658 13.6021C182.395 13.7046 182.124 13.8389 181.845 14.0049C181.567 14.1709 181.296 14.3564 181.032 14.5615C180.769 14.7666 180.546 14.9692 180.366 15.1694C180.268 15.2817 180.163 15.4062 180.051 15.543C179.943 15.6797 179.838 15.8237 179.736 15.9751C179.633 16.1265 179.541 16.2803 179.458 16.4365C179.379 16.5928 179.323 16.7441 179.289 16.8906C179.27 16.9688 179.262 17.0664 179.267 17.1836C179.272 17.2959 179.282 17.4204 179.296 17.5571C179.311 17.689 179.326 17.8281 179.34 17.9746C179.36 18.1162 179.37 18.2529 179.37 18.3848C179.37 18.4629 179.367 18.5386 179.362 18.6118C179.362 18.6802 179.355 18.7461 179.34 18.8096C179.331 18.8535 179.304 18.9023 179.26 18.9561C179.216 19.0049 179.162 19.0513 179.099 19.0952C179.035 19.1392 178.964 19.1758 178.886 19.2051C178.813 19.2393 178.742 19.2563 178.674 19.2563C178.562 19.2515 178.466 19.1929 178.388 19.0806C178.31 18.9683 178.247 18.8145 178.198 18.6191C178.149 18.4238 178.115 18.1943 178.095 17.9307C178.076 17.6621 178.066 17.3716 178.066 17.0591C178.066 16.9663 178.068 16.8296 178.073 16.6489C178.078 16.4683 178.083 16.2852 178.088 16.0996C178.098 15.9092 178.105 15.7383 178.11 15.5869C178.12 15.4355 178.125 15.3428 178.125 15.3086C178.129 15.2256 178.134 15.1133 178.139 14.9717C178.149 14.8301 178.159 14.6763 178.168 14.5103C178.183 14.3394 178.198 14.166 178.212 13.9902C178.232 13.8145 178.251 13.6533 178.271 13.5068C178.281 13.4482 178.291 13.3628 178.3 13.2505C178.31 13.1382 178.32 13.0234 178.33 12.9062C178.344 12.7842 178.359 12.6694 178.374 12.562C178.388 12.4497 178.403 12.3667 178.417 12.313C178.432 12.2544 178.464 12.186 178.513 12.1079C178.566 12.0298 178.63 11.9541 178.703 11.8809C178.776 11.8076 178.857 11.7466 178.945 11.6978C179.038 11.644 179.133 11.6172 179.23 11.6172C179.333 11.6221 179.416 11.644 179.479 11.6831C179.548 11.7173 179.602 11.7612 179.641 11.8149C179.68 11.8638 179.707 11.9175 179.721 11.9761C179.736 12.0298 179.743 12.0786 179.743 12.1226C179.743 12.147 179.733 12.1958 179.714 12.269C179.699 12.3374 179.677 12.4204 179.648 12.5181C179.619 12.6108 179.587 12.7134 179.553 12.8257C179.523 12.9331 179.494 13.0356 179.465 13.1333C179.44 13.231 179.418 13.3188 179.399 13.397C179.379 13.4751 179.37 13.5288 179.37 13.5581C179.37 13.5972 179.362 13.6729 179.348 13.7852C179.338 13.8926 179.326 14.0171 179.311 14.1587C179.301 14.3003 179.289 14.4492 179.274 14.6055C179.265 14.7568 179.26 14.8911 179.26 15.0083C179.26 15.0474 179.26 15.084 179.26 15.1182C179.26 15.1523 179.262 15.1841 179.267 15.2134C179.448 14.9888 179.646 14.7544 179.86 14.5103C180.08 14.2661 180.312 14.0269 180.556 13.7925C180.8 13.5532 181.054 13.3262 181.318 13.1113C181.582 12.8965 181.848 12.7085 182.116 12.5474C182.39 12.3813 182.661 12.252 182.929 12.1592C183.203 12.0615 183.469 12.0127 183.728 12.0127C183.874 12.0176 184.001 12.0493 184.108 12.1079C184.221 12.1665 184.313 12.2373 184.387 12.3203C184.46 12.3984 184.514 12.479 184.548 12.562C184.582 12.645 184.599 12.7158 184.599 12.7744V12.7817ZM188.767 8.27734C188.767 8.59473 188.684 8.86572 188.518 9.09033C188.356 9.31494 188.12 9.42725 187.807 9.42725C187.612 9.42725 187.395 9.39795 187.155 9.33936C186.921 9.28076 186.804 9.18555 186.804 9.05371C186.804 8.81445 186.877 8.5874 187.023 8.37256C187.175 8.15283 187.355 7.97461 187.565 7.83789C187.731 7.74023 187.841 7.69141 187.895 7.69141C188.173 7.69141 188.388 7.73047 188.54 7.80859C188.691 7.88184 188.767 8.03809 188.767 8.27734ZM193.564 14.2319C193.569 14.3345 193.522 14.4736 193.425 14.6494C193.332 14.8252 193.203 15.0254 193.037 15.25C192.875 15.4697 192.685 15.7065 192.465 15.9604C192.25 16.2144 192.023 16.4683 191.784 16.7222C191.511 17.0151 191.22 17.2983 190.913 17.5718C190.61 17.8403 190.285 18.1016 189.938 18.3555C189.255 18.8633 188.645 19.1172 188.107 19.1172C187.517 19.1172 187.058 18.9194 186.73 18.5239C186.403 18.1235 186.181 17.6401 186.064 17.0737C185.947 16.5122 185.888 15.9336 185.888 15.3379C185.888 15.0889 185.917 14.7007 185.976 14.1733C186.005 13.9097 186.035 13.6826 186.064 13.4922C186.093 13.3018 186.125 13.1479 186.159 13.0308C186.228 12.8013 186.372 12.6011 186.591 12.4302C186.816 12.2495 187.05 12.1592 187.294 12.1592C187.426 12.1592 187.492 12.2837 187.492 12.5327C187.492 12.6987 187.475 12.8867 187.441 13.0967C187.412 13.3066 187.38 13.5142 187.346 13.7192C187.282 14.105 187.236 14.4517 187.207 14.7593C187.177 15.062 187.163 15.3257 187.163 15.5503C187.163 16.0435 187.231 16.5415 187.368 17.0444C187.504 17.5571 187.751 17.8135 188.107 17.8135C188.469 17.8135 188.889 17.6816 189.367 17.418C189.606 17.2812 189.846 17.1299 190.085 16.9639C190.324 16.7979 190.563 16.6123 190.803 16.4072C191.047 16.2021 191.281 15.9971 191.506 15.792C191.73 15.582 191.95 15.3672 192.165 15.1475C192.38 14.9277 192.573 14.7227 192.744 14.5322C192.915 14.3418 193.063 14.166 193.19 14.0049C193.195 13.9951 193.203 13.9805 193.212 13.9609C193.227 13.9365 193.242 13.9146 193.256 13.895C193.271 13.8706 193.286 13.8511 193.3 13.8364C193.315 13.8218 193.33 13.8169 193.344 13.8218C193.413 13.8218 193.464 13.8755 193.498 13.9829C193.542 14.0854 193.564 14.1685 193.564 14.2319ZM199.028 12.2178C199.028 12.2861 198.999 12.3984 198.94 12.5547C198.886 12.7061 198.82 12.8916 198.742 13.1113C198.664 13.3311 198.583 13.5825 198.5 13.8657C198.417 14.144 198.352 14.4443 198.303 14.7666C198.239 15.1865 198.186 15.5674 198.142 15.9092C198.098 16.2461 198.059 16.5659 198.024 16.8687C197.99 17.1714 197.956 17.4668 197.922 17.7549C197.893 18.043 197.856 18.3433 197.812 18.6558C197.788 18.8169 197.746 19.0098 197.688 19.2344C197.629 19.459 197.558 19.6885 197.475 19.9229C197.397 20.1572 197.309 20.3843 197.211 20.604C197.114 20.8237 197.019 21.0093 196.926 21.1606C196.779 21.395 196.606 21.6001 196.406 21.7759C196.21 21.9517 196.003 22.0981 195.783 22.2153C195.568 22.3325 195.346 22.4204 195.117 22.479C194.892 22.5376 194.677 22.5669 194.472 22.5669C194.077 22.5669 193.667 22.4888 193.242 22.3325C192.817 22.1812 192.363 21.937 191.879 21.6001C191.738 21.4976 191.596 21.3804 191.455 21.2485C191.318 21.1216 191.193 20.9922 191.081 20.8604C190.964 20.7285 190.871 20.6016 190.803 20.4795C190.729 20.3623 190.693 20.2598 190.693 20.1719C190.693 20.0742 190.715 19.9937 190.759 19.9302C190.798 19.8716 190.859 19.8423 190.942 19.8423C191.005 19.8423 191.105 19.8887 191.242 19.9814C191.374 20.0742 191.53 20.1865 191.711 20.3184C191.896 20.4502 192.094 20.5869 192.304 20.7285C192.519 20.8701 192.736 20.9873 192.956 21.0801C193.137 21.1582 193.291 21.2217 193.417 21.2705C193.549 21.3193 193.674 21.356 193.791 21.3804C193.913 21.4048 194.042 21.4219 194.179 21.4316C194.321 21.4414 194.492 21.4463 194.692 21.4463C194.78 21.4463 194.892 21.4219 195.029 21.373C195.166 21.3242 195.305 21.2534 195.446 21.1606C195.588 21.0679 195.725 20.9531 195.856 20.8164C195.993 20.6797 196.105 20.5234 196.193 20.3477C196.315 20.1035 196.418 19.8374 196.501 19.5493C196.589 19.2661 196.662 18.9756 196.721 18.6777C196.784 18.375 196.835 18.0747 196.875 17.7769C196.918 17.479 196.955 17.1958 196.984 16.9272C197.019 16.6538 197.05 16.4023 197.08 16.1729C197.109 15.9385 197.143 15.7407 197.182 15.5796C197.177 15.5747 197.17 15.5723 197.16 15.5723C197.131 15.5723 197.092 15.5942 197.043 15.6382C196.994 15.6772 196.943 15.7261 196.889 15.7847C196.84 15.8384 196.792 15.8945 196.743 15.9531C196.694 16.0068 196.655 16.0508 196.625 16.085C196.396 16.3242 196.149 16.5464 195.886 16.7515C195.622 16.9517 195.351 17.1274 195.073 17.2788C194.799 17.4253 194.526 17.54 194.252 17.623C193.984 17.7061 193.725 17.7476 193.476 17.7476C193.291 17.7476 193.12 17.7183 192.963 17.6597C192.812 17.6011 192.68 17.5132 192.568 17.396C192.456 17.2788 192.368 17.1323 192.304 16.9565C192.241 16.7808 192.209 16.5757 192.209 16.3413C192.209 16.0337 192.268 15.6968 192.385 15.3306C192.507 14.9595 192.69 14.5811 192.934 14.1953C193.178 13.8047 193.486 13.4165 193.857 13.0308C194.233 12.6401 194.677 12.269 195.19 11.9175C195.371 11.7954 195.559 11.6807 195.754 11.5732C195.949 11.4609 196.147 11.3633 196.347 11.2803C196.547 11.1973 196.75 11.1313 196.955 11.0825C197.16 11.0337 197.363 11.0093 197.563 11.0093C197.719 11.0093 197.856 11.0264 197.973 11.0605C198.095 11.0947 198.2 11.1362 198.288 11.1851C198.381 11.229 198.459 11.2778 198.522 11.3315C198.591 11.3804 198.649 11.4219 198.698 11.4561C198.742 11.4854 198.784 11.5342 198.823 11.6025C198.862 11.666 198.896 11.7368 198.925 11.8149C198.959 11.8882 198.984 11.9639 198.999 12.042C199.018 12.1152 199.028 12.1738 199.028 12.2178ZM197.702 12.7598C197.702 12.7158 197.695 12.6548 197.68 12.5767C197.666 12.4937 197.639 12.4131 197.6 12.335C197.565 12.2568 197.517 12.1885 197.453 12.1299C197.395 12.0713 197.319 12.0371 197.226 12.0273C197.133 12.0225 197.021 12.0347 196.889 12.064C196.757 12.0884 196.613 12.1348 196.457 12.2031C196.306 12.2666 196.147 12.3496 195.981 12.4521C195.82 12.5498 195.666 12.6646 195.52 12.7964C195.163 13.1138 194.848 13.4336 194.575 13.7559C194.306 14.0781 194.079 14.3882 193.894 14.686C193.713 14.979 193.576 15.25 193.483 15.499C193.391 15.748 193.344 15.9556 193.344 16.1216C193.344 16.2144 193.359 16.2949 193.388 16.3633C193.422 16.4316 193.464 16.4902 193.513 16.5391C193.562 16.583 193.618 16.6172 193.681 16.6416C193.745 16.6611 193.806 16.6709 193.864 16.6709C193.996 16.6709 194.157 16.6367 194.348 16.5684C194.543 16.5 194.738 16.4194 194.934 16.3267C195.134 16.229 195.322 16.1265 195.498 16.019C195.673 15.9116 195.808 15.8164 195.9 15.7334C196.145 15.5234 196.374 15.2842 196.589 15.0156C196.809 14.7422 197.001 14.4688 197.167 14.1953C197.333 13.917 197.463 13.6509 197.556 13.397C197.653 13.1431 197.702 12.9307 197.702 12.7598ZM214.006 14.188C214.006 14.2905 213.933 14.4517 213.786 14.6714C213.732 14.7593 213.664 14.8569 213.581 14.9644C213.498 15.0718 213.41 15.1816 213.317 15.2939C213.229 15.4014 213.142 15.5039 213.054 15.6016C212.966 15.6992 212.888 15.7822 212.819 15.8506C212.536 16.1387 212.236 16.4146 211.918 16.6782C211.601 16.9419 211.271 17.1787 210.93 17.3887C210.593 17.5938 210.241 17.7598 209.875 17.8867C209.514 18.0137 209.145 18.0796 208.769 18.0845C208.481 18.0845 208.225 18.0308 208 17.9233C207.78 17.8159 207.607 17.6426 207.48 17.4033C207.353 17.1641 207.258 16.8955 207.194 16.5977C207.131 16.2998 207.08 15.98 207.041 15.6382C207.036 15.5845 207.028 15.5039 207.019 15.3965C207.009 15.2891 206.997 15.1719 206.982 15.0449C206.972 14.9131 206.958 14.7788 206.938 14.6421C206.918 14.5054 206.896 14.3809 206.872 14.2686C206.848 14.1562 206.818 14.0659 206.784 13.9976C206.755 13.9243 206.721 13.8877 206.682 13.8877C206.53 13.8877 206.323 13.9902 206.059 14.1953C205.795 14.3955 205.507 14.6616 205.195 14.9937C204.882 15.3208 204.562 15.6919 204.235 16.1069C203.908 16.522 203.603 16.9443 203.32 17.374C203.071 17.7451 202.844 18.1187 202.639 18.4946C202.438 18.8657 202.263 19.1904 202.111 19.4688C202.028 19.5957 201.94 19.6836 201.848 19.7324C201.755 19.7861 201.691 19.813 201.657 19.813C201.579 19.813 201.499 19.7935 201.416 19.7544C201.337 19.7202 201.264 19.6738 201.196 19.6152C201.132 19.5566 201.079 19.4883 201.035 19.4102C200.996 19.3369 200.976 19.2637 200.976 19.1904C200.976 19.127 200.986 19.0244 201.005 18.8828C201.03 18.7363 201.057 18.5728 201.086 18.3921C201.115 18.2114 201.145 18.0259 201.174 17.8354C201.203 17.6401 201.228 17.4595 201.247 17.2935C201.281 16.9712 201.32 16.6172 201.364 16.2314C201.408 15.8457 201.45 15.4575 201.489 15.0669C201.528 14.6714 201.564 14.2856 201.599 13.9097C201.633 13.5337 201.66 13.1943 201.679 12.8916C201.684 12.7939 201.691 12.6646 201.701 12.5034C201.711 12.3423 201.721 12.1665 201.73 11.9761C201.74 11.7808 201.75 11.5757 201.76 11.3608C201.77 11.146 201.779 10.9385 201.789 10.7383C201.799 10.5332 201.806 10.3428 201.811 10.167C201.821 9.98633 201.828 9.83496 201.833 9.71289C201.838 9.57617 201.845 9.44922 201.855 9.33203C201.87 9.21484 201.887 9.1001 201.906 8.98779C201.931 8.87061 201.962 8.75586 202.001 8.64355C202.045 8.52637 202.099 8.39941 202.163 8.2627C202.182 8.21875 202.214 8.16992 202.258 8.11621C202.302 8.0625 202.351 8.01367 202.404 7.96973C202.463 7.92578 202.524 7.88916 202.587 7.85986C202.656 7.82568 202.724 7.80859 202.792 7.80859C202.934 7.80859 203.061 7.86475 203.173 7.97705C203.291 8.08936 203.349 8.24561 203.349 8.4458C203.349 8.50928 203.337 8.59473 203.312 8.70215C203.293 8.80957 203.269 8.92188 203.239 9.03906C203.21 9.15137 203.181 9.26123 203.151 9.36865C203.127 9.47119 203.11 9.54932 203.1 9.60303C203.061 9.80322 203.027 10.0327 202.998 10.2915C202.968 10.5503 202.939 10.814 202.91 11.0825C202.885 11.3511 202.863 11.6172 202.844 11.8809C202.824 12.1396 202.807 12.3716 202.792 12.5767C202.778 12.811 202.758 13.0308 202.734 13.2358C202.714 13.4409 202.692 13.646 202.668 13.8511C202.648 14.0513 202.629 14.2563 202.609 14.4663C202.59 14.6714 202.57 14.8936 202.551 15.1328C202.517 15.4941 202.478 15.814 202.434 16.0923C202.39 16.3657 202.368 16.6001 202.368 16.7954C202.368 16.8247 202.382 16.8589 202.412 16.8979C202.446 16.937 202.475 16.9565 202.5 16.9565H202.529C202.573 16.9028 202.629 16.8223 202.697 16.7148C202.766 16.6074 202.844 16.4902 202.932 16.3633C203.02 16.2363 203.11 16.1045 203.203 15.9678C203.3 15.8262 203.396 15.6968 203.488 15.5796C203.581 15.4624 203.681 15.3354 203.789 15.1987C203.901 15.0571 204.016 14.9155 204.133 14.7739C204.255 14.6323 204.377 14.4907 204.499 14.3491C204.626 14.2075 204.748 14.0757 204.865 13.9536C205.017 13.8022 205.185 13.6436 205.371 13.4775C205.556 13.3115 205.749 13.1602 205.949 13.0234C206.154 12.8867 206.359 12.7744 206.564 12.6865C206.77 12.5986 206.965 12.5547 207.15 12.5547C207.185 12.5547 207.229 12.5645 207.282 12.584C207.341 12.6035 207.397 12.6328 207.451 12.6719C207.509 12.7061 207.563 12.75 207.612 12.8037C207.661 12.8525 207.697 12.9111 207.722 12.9795C207.819 13.2432 207.89 13.5068 207.934 13.7705C207.978 14.0342 208.017 14.3125 208.051 14.6055C208.081 14.8545 208.112 15.1108 208.146 15.3745C208.181 15.6382 208.225 15.8774 208.278 16.0923C208.332 16.3071 208.4 16.4829 208.483 16.6196C208.571 16.7563 208.681 16.8247 208.813 16.8247C209.414 16.8247 209.99 16.6904 210.542 16.4219C210.834 16.2803 211.086 16.1436 211.296 16.0117C211.511 15.8799 211.708 15.7432 211.889 15.6016C212.075 15.46 212.258 15.3037 212.438 15.1328C212.619 14.9619 212.829 14.7642 213.068 14.5396C213.542 14.105 213.818 13.8877 213.896 13.8877C213.969 13.8877 214.006 13.9878 214.006 14.188ZM220.583 12.5474C220.583 12.728 220.534 12.8672 220.437 12.9648C220.339 13.0576 220.227 13.1406 220.1 13.2139C219.938 13.2871 219.758 13.353 219.558 13.4116C219.362 13.4702 219.16 13.5239 218.95 13.5728C218.745 13.6167 218.537 13.6558 218.327 13.6899C218.117 13.7192 217.917 13.7437 217.727 13.7632C217.521 13.7827 217.304 13.8022 217.075 13.8218C216.845 13.8413 216.623 13.8633 216.408 13.8877C216.193 13.9072 215.993 13.9316 215.808 13.9609C215.627 13.9902 215.48 14.0269 215.368 14.0708C215.266 14.5151 215.156 14.9399 215.039 15.3452C214.926 15.7456 214.831 16.146 214.753 16.5464C214.733 16.6392 214.707 16.7783 214.672 16.9639C214.643 17.1494 214.614 17.3447 214.584 17.5498C214.555 17.75 214.528 17.9404 214.504 18.1211C214.484 18.2969 214.475 18.4238 214.475 18.502C214.475 18.7021 214.506 18.8535 214.57 18.9561C214.633 19.0537 214.702 19.1318 214.775 19.1904C214.853 19.2539 214.924 19.3125 214.987 19.3662C215.051 19.4199 215.083 19.5005 215.083 19.6079C215.083 19.6763 215.048 19.7422 214.98 19.8057C214.917 19.8691 214.838 19.9253 214.746 19.9741C214.653 20.0229 214.553 20.0596 214.445 20.084C214.343 20.1133 214.252 20.1279 214.174 20.1279C214.033 20.1279 213.906 20.0889 213.793 20.0107C213.681 19.9326 213.586 19.8301 213.508 19.7031C213.43 19.5811 213.369 19.4395 213.325 19.2783C213.281 19.1172 213.259 18.9512 213.259 18.7803C213.259 18.5557 213.278 18.3164 213.317 18.0625C213.356 17.8037 213.405 17.54 213.464 17.2715C213.522 17.0029 213.583 16.7295 213.647 16.4512C213.715 16.168 213.779 15.8872 213.837 15.6089C213.862 15.4917 213.886 15.3721 213.911 15.25C213.94 15.123 213.964 15.0059 213.984 14.8984C214.008 14.7861 214.028 14.6934 214.042 14.6201C214.057 14.5469 214.064 14.5029 214.064 14.4883C214.064 14.4102 214.035 14.3516 213.977 14.3125C213.923 14.2686 213.857 14.2466 213.779 14.2466C213.72 14.2466 213.632 14.2515 213.515 14.2612C213.398 14.271 213.273 14.2832 213.142 14.2979C213.015 14.3125 212.893 14.3247 212.775 14.3345C212.658 14.3442 212.573 14.3491 212.519 14.3491C212.343 14.3491 212.194 14.3394 212.072 14.3198C211.95 14.2954 211.85 14.2539 211.772 14.1953C211.699 14.1367 211.645 14.0562 211.611 13.9536C211.572 13.8462 211.552 13.7095 211.552 13.5435C211.552 13.4751 211.584 13.4214 211.647 13.3823C211.711 13.3433 211.787 13.3164 211.875 13.3018C211.967 13.2822 212.065 13.2725 212.167 13.2725C212.27 13.2676 212.36 13.2651 212.438 13.2651C212.502 13.2651 212.604 13.2603 212.746 13.2505C212.893 13.2358 213.044 13.2212 213.2 13.2065C213.361 13.1919 213.513 13.1797 213.654 13.1699C213.801 13.1553 213.906 13.1479 213.969 13.1479C213.999 13.1479 214.033 13.1455 214.072 13.1406C214.111 13.1357 214.15 13.1235 214.189 13.104C214.233 13.0796 214.272 13.043 214.306 12.9941C214.34 12.9404 214.37 12.8672 214.394 12.7744C214.428 12.623 214.47 12.4473 214.519 12.2471C214.567 12.042 214.616 11.8345 214.665 11.6245C214.719 11.4097 214.77 11.2046 214.819 11.0093C214.868 10.8091 214.909 10.6382 214.943 10.4966C214.987 10.3599 215.024 10.2134 215.053 10.0571C215.087 9.90088 215.117 9.74463 215.141 9.58838C215.17 9.43213 215.202 9.28076 215.236 9.13428C215.271 8.98779 215.314 8.85352 215.368 8.73145C215.476 8.47754 215.649 8.35059 215.888 8.35059C216.25 8.35059 216.43 8.55078 216.43 8.95117C216.43 9.2002 216.376 9.48584 216.269 9.80811C216.035 10.5503 215.861 11.1631 215.749 11.6465C215.637 12.125 215.581 12.4473 215.581 12.6133C215.581 12.7939 215.671 12.8843 215.852 12.8843C216.071 12.8843 216.276 12.8818 216.467 12.877C216.662 12.8672 216.857 12.855 217.053 12.8403C217.253 12.8208 217.463 12.7988 217.683 12.7744C217.902 12.75 218.149 12.7231 218.422 12.6938C218.618 12.6694 218.803 12.6401 218.979 12.606C219.16 12.5718 219.326 12.54 219.477 12.5107C219.628 12.4766 219.763 12.4448 219.88 12.4155C219.997 12.3862 220.095 12.3667 220.173 12.3569C220.227 12.3521 220.278 12.3447 220.327 12.335C220.38 12.3252 220.424 12.3252 220.458 12.335C220.498 12.3398 220.527 12.3594 220.546 12.3936C220.571 12.4229 220.583 12.4741 220.583 12.5474ZM222.7 17.4106C222.7 17.6597 222.656 17.9038 222.568 18.1431C222.48 18.3774 222.36 18.5996 222.209 18.8096C222.062 19.0195 221.892 19.2124 221.696 19.3882C221.506 19.5688 221.306 19.7227 221.096 19.8496C220.891 19.9814 220.683 20.0815 220.473 20.1499C220.263 20.2231 220.07 20.2598 219.895 20.2598C219.65 20.2598 219.489 20.2061 219.411 20.0986C219.333 19.9912 219.294 19.8398 219.294 19.6445C219.294 19.4639 219.328 19.3247 219.396 19.2271C219.465 19.1343 219.562 19.0537 219.689 18.9854C219.704 18.9805 219.731 18.9756 219.77 18.9707C219.809 18.9609 219.851 18.9561 219.895 18.9561C219.943 18.9512 219.99 18.9487 220.034 18.9487C220.083 18.9438 220.122 18.9414 220.151 18.9414C220.185 18.9414 220.234 18.9341 220.297 18.9194C220.361 18.9048 220.429 18.8853 220.502 18.8608C220.576 18.8315 220.651 18.7974 220.729 18.7583C220.808 18.7144 220.881 18.6655 220.949 18.6118C221.145 18.4556 221.281 18.2822 221.359 18.0918C221.442 17.8965 221.484 17.7231 221.484 17.5718C221.484 17.3813 221.423 17.2031 221.301 17.0371C221.179 16.8711 221.025 16.71 220.839 16.5537C220.654 16.3926 220.454 16.2339 220.239 16.0776C220.024 15.9165 219.824 15.748 219.638 15.5723C219.453 15.3916 219.299 15.2012 219.177 15.001C219.055 14.8008 218.994 14.5786 218.994 14.3345C218.994 14.2124 219.008 14.083 219.038 13.9463C219.072 13.8096 219.113 13.6753 219.162 13.5435C219.216 13.4116 219.274 13.2847 219.338 13.1626C219.406 13.0356 219.477 12.9209 219.55 12.8184C219.667 12.6523 219.794 12.4888 219.931 12.3276C220.073 12.1665 220.214 12.0249 220.356 11.9028C220.498 11.7759 220.637 11.6758 220.773 11.6025C220.91 11.5244 221.037 11.4854 221.154 11.4854C221.486 11.4854 221.652 11.6807 221.652 12.0713C221.652 12.208 221.596 12.3667 221.484 12.5474C221.376 12.728 221.247 12.894 221.096 13.0454C220.861 13.27 220.656 13.4629 220.48 13.624C220.305 13.7803 220.141 13.9414 219.99 14.1074C220.102 14.2734 220.224 14.4248 220.356 14.5615C220.488 14.6982 220.625 14.8301 220.766 14.957C220.913 15.084 221.059 15.2085 221.206 15.3306C221.357 15.4526 221.506 15.5796 221.652 15.7114C221.789 15.8384 221.918 15.9678 222.041 16.0996C222.167 16.2266 222.28 16.3608 222.377 16.5024C222.475 16.6392 222.553 16.7832 222.612 16.9346C222.67 17.0859 222.7 17.2446 222.7 17.4106ZM236.975 13.3237C236.975 13.397 236.94 13.4604 236.872 13.5142C236.809 13.563 236.723 13.6094 236.616 13.6533C236.508 13.6973 236.386 13.7388 236.25 13.7778C236.118 13.812 235.986 13.8511 235.854 13.895C235.537 13.9927 235.209 14.1343 234.873 14.3198C234.541 14.5005 234.194 14.7739 233.833 15.1401C233.549 15.4282 233.305 15.731 233.1 16.0483C232.9 16.3608 232.727 16.6929 232.58 17.0444C232.434 17.396 232.309 17.7695 232.207 18.165C232.104 18.5557 232.016 18.9731 231.943 19.4175C231.889 19.4761 231.843 19.5273 231.804 19.5713C231.765 19.6152 231.723 19.6519 231.679 19.6812C231.635 19.7104 231.584 19.7324 231.525 19.7471C231.472 19.7666 231.401 19.7764 231.313 19.7764C231.186 19.7764 231.086 19.7202 231.013 19.6079C230.944 19.5005 230.893 19.3711 230.859 19.2197C230.825 19.0732 230.803 18.9243 230.793 18.7729C230.788 18.6216 230.786 18.502 230.786 18.4141C230.786 18.3213 230.788 18.2041 230.793 18.0625C230.798 17.916 230.803 17.7573 230.808 17.5864C230.817 17.4155 230.827 17.2397 230.837 17.0591C230.847 16.8735 230.854 16.6953 230.859 16.5244C230.869 16.3535 230.876 16.1973 230.881 16.0557C230.886 15.9092 230.888 15.7896 230.888 15.6968C230.888 15.4722 230.883 15.2866 230.874 15.1401C230.869 14.9937 230.861 14.8691 230.852 14.7666C230.842 14.6641 230.83 14.5737 230.815 14.4956C230.8 14.4126 230.788 14.3247 230.778 14.2319C230.769 14.1343 230.759 14.022 230.749 13.895C230.744 13.7632 230.742 13.5947 230.742 13.3896C230.742 13.2871 230.764 13.1895 230.808 13.0967C230.852 12.999 230.908 12.916 230.976 12.8477C231.049 12.7744 231.13 12.7183 231.218 12.6792C231.311 12.6353 231.401 12.6133 231.489 12.6133C231.591 12.6133 231.687 12.6353 231.774 12.6792C231.862 12.7231 231.938 12.7793 232.001 12.8477C232.065 12.916 232.114 12.9966 232.148 13.0894C232.182 13.1772 232.199 13.2676 232.199 13.3604C232.199 13.5459 232.187 13.7681 232.163 14.0269C232.138 14.2808 232.111 14.542 232.082 14.8105C232.058 15.0742 232.036 15.3306 232.016 15.5796C231.997 15.8237 231.989 16.0288 231.994 16.1948C232.204 15.7944 232.446 15.3892 232.719 14.979C232.998 14.5688 233.305 14.1978 233.642 13.8657C233.984 13.5288 234.353 13.2554 234.748 13.0454C235.144 12.8306 235.566 12.7231 236.015 12.7231C236.103 12.7231 236.203 12.7329 236.315 12.7524C236.428 12.772 236.533 12.8062 236.63 12.855C236.728 12.9038 236.809 12.9673 236.872 13.0454C236.94 13.1187 236.975 13.2114 236.975 13.3237ZM246.401 13.9463C246.401 14.0195 246.347 14.1489 246.24 14.3345C245.986 14.7007 245.7 15.0669 245.383 15.4331C245.07 15.7993 244.736 16.1484 244.379 16.4805C244.028 16.8076 243.659 17.1152 243.273 17.4033C242.893 17.6865 242.507 17.9331 242.116 18.1431C241.726 18.3481 241.335 18.5068 240.944 18.6191C240.559 18.7314 240.185 18.7852 239.824 18.7803C239.042 18.7803 238.435 18.5532 238 18.0991C237.57 17.645 237.355 16.959 237.355 16.041C237.355 15.2744 237.473 14.5298 237.707 13.8071C237.946 13.0845 238.352 12.3887 238.923 11.7197C239.03 11.6025 239.15 11.4902 239.282 11.3828C239.418 11.2754 239.56 11.1802 239.707 11.0972C239.858 11.0142 240.012 10.9482 240.168 10.8994C240.329 10.8506 240.49 10.8213 240.651 10.8115C240.69 10.8115 240.744 10.8164 240.812 10.8262C240.881 10.8359 240.954 10.853 241.032 10.8774C241.11 10.9019 241.186 10.9336 241.259 10.9727C241.333 11.0068 241.391 11.0508 241.435 11.1045C241.572 11.2607 241.679 11.4219 241.757 11.5879C241.84 11.7539 241.887 11.937 241.896 12.1372C241.906 12.3618 241.879 12.584 241.816 12.8037C241.757 13.0186 241.655 13.2407 241.508 13.4702C241.367 13.6948 241.179 13.9292 240.944 14.1733C240.71 14.4126 240.427 14.6714 240.095 14.9497C239.885 15.1255 239.65 15.3208 239.392 15.5356C239.138 15.7456 238.83 15.9678 238.469 16.2021C238.469 16.6758 238.61 17.0371 238.894 17.2861C239.182 17.5303 239.575 17.6523 240.073 17.6523C240.351 17.6523 240.632 17.6157 240.915 17.5425C241.198 17.4692 241.477 17.374 241.75 17.2568C242.023 17.1348 242.287 16.998 242.541 16.8467C242.8 16.6904 243.042 16.5317 243.266 16.3706C243.681 16.0679 244.057 15.7676 244.394 15.4697C244.731 15.167 245.065 14.8496 245.397 14.5176L245.793 14.1221C246.032 13.9121 246.206 13.8071 246.313 13.8071C246.372 13.8071 246.401 13.8535 246.401 13.9463ZM240.805 12.4888C240.8 12.4155 240.788 12.3447 240.769 12.2764C240.754 12.2031 240.729 12.1396 240.695 12.0859C240.661 12.0322 240.622 11.9907 240.578 11.9614C240.534 11.9272 240.483 11.9102 240.424 11.9102C240.166 11.9248 239.907 12.0835 239.648 12.3862C239.389 12.6841 239.145 13.0796 238.916 13.5728C238.862 13.6802 238.813 13.8022 238.769 13.939C238.73 14.0708 238.691 14.2075 238.652 14.3491C238.618 14.4858 238.586 14.6226 238.557 14.7593C238.532 14.896 238.51 15.0181 238.491 15.1255C238.745 14.9351 238.979 14.7593 239.194 14.5981C239.409 14.437 239.609 14.271 239.794 14.1001C239.912 13.9927 240.031 13.8779 240.153 13.7559C240.275 13.6289 240.385 13.4971 240.483 13.3604C240.585 13.2236 240.666 13.082 240.725 12.9355C240.783 12.7891 240.81 12.6401 240.805 12.4888ZM252.055 15.7554C252.055 15.7993 252.028 15.8628 251.975 15.9458C251.926 16.0288 251.853 16.124 251.755 16.2314C251.662 16.334 251.55 16.4463 251.418 16.5684C251.286 16.6855 251.137 16.8027 250.971 16.9199C250.566 17.2129 250.124 17.5107 249.646 17.8135C249.167 18.1162 248.688 18.4141 248.21 18.707C247.824 18.9414 247.458 19.1538 247.111 19.3442C246.765 19.5396 246.459 19.7031 246.196 19.835C246.03 19.918 245.883 19.9888 245.756 20.0474C245.634 20.106 245.522 20.1548 245.419 20.1938C245.317 20.2329 245.219 20.2598 245.126 20.2744C245.039 20.2939 244.951 20.3037 244.863 20.3037C244.819 20.3037 244.765 20.2891 244.702 20.2598C244.638 20.2354 244.58 20.1987 244.526 20.1499C244.472 20.106 244.426 20.0547 244.387 19.9961C244.348 19.9375 244.328 19.8765 244.328 19.813C244.328 19.5005 244.45 19.2515 244.694 19.0659C244.753 19.022 244.809 18.9829 244.863 18.9487C244.917 18.9146 244.978 18.8828 245.046 18.8535C245.114 18.8193 245.195 18.7876 245.288 18.7583C245.385 18.729 245.505 18.6997 245.646 18.6704C245.91 18.6167 246.162 18.5483 246.401 18.4653C246.645 18.3823 246.828 18.2944 246.95 18.2017C247.072 18.1089 247.155 17.9917 247.199 17.8501C247.248 17.7085 247.272 17.5571 247.272 17.396C247.272 17.2349 247.104 16.9077 246.767 16.4146C246.601 16.1655 246.452 15.9482 246.32 15.7627C246.193 15.5771 246.083 15.4014 245.991 15.2354C245.898 15.0645 245.827 14.8789 245.778 14.6787C245.734 14.4736 245.712 14.2783 245.712 14.0928C245.712 13.7559 245.773 13.4116 245.896 13.0601C245.954 12.855 246.044 12.6523 246.167 12.4521C246.293 12.2471 246.433 12.064 246.584 11.9028C246.735 11.7417 246.887 11.6099 247.038 11.5073C247.194 11.4048 247.331 11.3535 247.448 11.3535H247.47C247.9 11.3535 248.115 11.6074 248.115 12.1152C248.115 12.3105 248.044 12.501 247.902 12.6865C247.761 12.8672 247.565 13.0601 247.316 13.2651C247.194 13.3677 247.082 13.458 246.979 13.5361C246.877 13.6143 246.799 13.6802 246.745 13.7339C246.745 13.8608 246.765 14.0098 246.804 14.1807C246.843 14.3467 246.901 14.5151 246.979 14.686C247.062 14.8521 247.17 15.0254 247.302 15.2061C247.434 15.3867 247.563 15.5625 247.69 15.7334C247.768 15.8408 247.849 15.9604 247.932 16.0923C248.02 16.2192 248.1 16.356 248.173 16.5024C248.247 16.644 248.308 16.7881 248.356 16.9346C248.405 17.0811 248.435 17.2227 248.444 17.3594C248.444 17.3691 248.454 17.3838 248.474 17.4033C248.493 17.418 248.515 17.4253 248.54 17.4253C248.579 17.4253 248.654 17.396 248.767 17.3374C248.884 17.2739 249.023 17.1958 249.184 17.103C249.345 17.0054 249.521 16.8979 249.711 16.7808C249.902 16.6587 250.09 16.5391 250.275 16.4219C250.461 16.2998 250.637 16.1851 250.803 16.0776C250.974 15.9702 251.118 15.8799 251.235 15.8066C251.391 15.709 251.508 15.6235 251.586 15.5503C251.669 15.4722 251.745 15.4331 251.813 15.4331C251.896 15.4331 251.958 15.4648 251.997 15.5283C252.036 15.5869 252.055 15.6626 252.055 15.7554ZM260.324 13.4775C260.324 13.5557 260.271 13.6851 260.163 13.8657C259.968 14.1782 259.724 14.5151 259.431 14.8765C259.143 15.2378 258.82 15.6016 258.464 15.9678C258.112 16.3291 257.736 16.6782 257.336 17.0151C256.94 17.3521 256.538 17.6499 256.127 17.9087C255.717 18.1626 255.312 18.3677 254.912 18.5239C254.511 18.6802 254.13 18.7583 253.769 18.7583H253.718C252.883 18.7583 252.258 18.519 251.843 18.0405C251.428 17.562 251.22 16.8955 251.22 16.041C251.22 15.6992 251.247 15.3379 251.301 14.957C251.354 14.5762 251.447 14.1904 251.579 13.7998C251.716 13.4043 251.899 13.0112 252.128 12.6206C252.363 12.2251 252.658 11.8442 253.015 11.478C253.283 11.2095 253.566 11.0044 253.864 10.8628C254.162 10.7163 254.443 10.6431 254.707 10.6431C254.746 10.6431 254.797 10.6528 254.86 10.6724C254.924 10.6919 254.987 10.7188 255.051 10.7529C255.119 10.7822 255.183 10.8213 255.241 10.8701C255.305 10.9141 255.358 10.9629 255.402 11.0166C255.539 11.1924 255.639 11.3608 255.703 11.522C255.766 11.6831 255.798 11.8711 255.798 12.0859C255.798 12.3691 255.759 12.6279 255.681 12.8623C255.603 13.0918 255.49 13.3164 255.344 13.5361C255.197 13.7559 255.017 13.978 254.802 14.2026C254.587 14.4224 254.34 14.6616 254.062 14.9204C253.969 15.0083 253.859 15.106 253.732 15.2134C253.605 15.3208 253.469 15.4331 253.322 15.5503C253.176 15.6675 253.024 15.7896 252.868 15.9165C252.712 16.0435 252.558 16.168 252.407 16.29C252.446 17.1641 252.932 17.6011 253.864 17.6011C254.382 17.6011 254.934 17.4644 255.52 17.1909C255.808 17.0542 256.076 16.8979 256.325 16.7222C256.574 16.5415 256.818 16.3584 257.058 16.1729C257.175 16.0801 257.304 15.9702 257.446 15.8433C257.587 15.7163 257.731 15.582 257.878 15.4404C258.029 15.2988 258.178 15.1572 258.325 15.0156C258.476 14.874 258.618 14.7397 258.75 14.6128C258.833 14.5298 258.92 14.4419 259.013 14.3491C259.111 14.2563 259.213 14.1562 259.321 14.0488L259.716 13.6533C259.956 13.4434 260.129 13.3384 260.236 13.3384C260.295 13.3384 260.324 13.3848 260.324 13.4775ZM254.685 12.3789C254.685 12.2324 254.646 12.1055 254.567 11.998C254.489 11.8857 254.394 11.8296 254.282 11.8296C254.199 11.8296 254.091 11.8638 253.959 11.9321C253.833 12.0005 253.696 12.1226 253.549 12.2983C253.251 12.6597 252.998 13.0967 252.788 13.6094C252.578 14.1172 252.431 14.6836 252.348 15.3086C252.656 15.0596 252.915 14.8374 253.125 14.6421C253.339 14.4468 253.532 14.2637 253.703 14.0928C253.82 13.9756 253.935 13.8511 254.047 13.7192C254.165 13.5874 254.27 13.4482 254.362 13.3018C254.46 13.1553 254.538 13.0039 254.597 12.8477C254.655 12.6914 254.685 12.5352 254.685 12.3789ZM266.103 12.7817C266.098 12.9185 266.071 13.0332 266.022 13.126C265.979 13.2188 265.922 13.2944 265.854 13.353C265.786 13.4116 265.71 13.4556 265.627 13.4849C265.544 13.5093 265.463 13.5215 265.385 13.5215C265.317 13.5215 265.234 13.5093 265.136 13.4849C265.043 13.4604 264.948 13.4458 264.851 13.4409C264.66 13.4409 264.431 13.4946 264.162 13.6021C263.898 13.7046 263.627 13.8389 263.349 14.0049C263.071 14.1709 262.8 14.3564 262.536 14.5615C262.272 14.7666 262.05 14.9692 261.87 15.1694C261.772 15.2817 261.667 15.4062 261.555 15.543C261.447 15.6797 261.342 15.8237 261.24 15.9751C261.137 16.1265 261.044 16.2803 260.961 16.4365C260.883 16.5928 260.827 16.7441 260.793 16.8906C260.773 16.9688 260.766 17.0664 260.771 17.1836C260.776 17.2959 260.786 17.4204 260.8 17.5571C260.815 17.689 260.83 17.8281 260.844 17.9746C260.864 18.1162 260.874 18.2529 260.874 18.3848C260.874 18.4629 260.871 18.5386 260.866 18.6118C260.866 18.6802 260.859 18.7461 260.844 18.8096C260.834 18.8535 260.808 18.9023 260.764 18.9561C260.72 19.0049 260.666 19.0513 260.603 19.0952C260.539 19.1392 260.468 19.1758 260.39 19.2051C260.317 19.2393 260.246 19.2563 260.178 19.2563C260.065 19.2515 259.97 19.1929 259.892 19.0806C259.814 18.9683 259.75 18.8145 259.702 18.6191C259.653 18.4238 259.619 18.1943 259.599 17.9307C259.58 17.6621 259.57 17.3716 259.57 17.0591C259.57 16.9663 259.572 16.8296 259.577 16.6489C259.582 16.4683 259.587 16.2852 259.592 16.0996C259.602 15.9092 259.609 15.7383 259.614 15.5869C259.624 15.4355 259.628 15.3428 259.628 15.3086C259.633 15.2256 259.638 15.1133 259.643 14.9717C259.653 14.8301 259.663 14.6763 259.672 14.5103C259.687 14.3394 259.702 14.166 259.716 13.9902C259.736 13.8145 259.755 13.6533 259.775 13.5068C259.785 13.4482 259.794 13.3628 259.804 13.2505C259.814 13.1382 259.824 13.0234 259.833 12.9062C259.848 12.7842 259.863 12.6694 259.877 12.562C259.892 12.4497 259.907 12.3667 259.921 12.313C259.936 12.2544 259.968 12.186 260.017 12.1079C260.07 12.0298 260.134 11.9541 260.207 11.8809C260.28 11.8076 260.361 11.7466 260.449 11.6978C260.542 11.644 260.637 11.6172 260.734 11.6172C260.837 11.6221 260.92 11.644 260.983 11.6831C261.052 11.7173 261.105 11.7612 261.145 11.8149C261.184 11.8638 261.21 11.9175 261.225 11.9761C261.24 12.0298 261.247 12.0786 261.247 12.1226C261.247 12.147 261.237 12.1958 261.218 12.269C261.203 12.3374 261.181 12.4204 261.152 12.5181C261.123 12.6108 261.091 12.7134 261.057 12.8257C261.027 12.9331 260.998 13.0356 260.969 13.1333C260.944 13.231 260.922 13.3188 260.903 13.397C260.883 13.4751 260.874 13.5288 260.874 13.5581C260.874 13.5972 260.866 13.6729 260.852 13.7852C260.842 13.8926 260.83 14.0171 260.815 14.1587C260.805 14.3003 260.793 14.4492 260.778 14.6055C260.769 14.7568 260.764 14.8911 260.764 15.0083C260.764 15.0474 260.764 15.084 260.764 15.1182C260.764 15.1523 260.766 15.1841 260.771 15.2134C260.952 14.9888 261.149 14.7544 261.364 14.5103C261.584 14.2661 261.816 14.0269 262.06 13.7925C262.304 13.5532 262.558 13.3262 262.822 13.1113C263.085 12.8965 263.352 12.7085 263.62 12.5474C263.894 12.3813 264.165 12.252 264.433 12.1592C264.707 12.0615 264.973 12.0127 265.231 12.0127C265.378 12.0176 265.505 12.0493 265.612 12.1079C265.725 12.1665 265.817 12.2373 265.891 12.3203C265.964 12.3984 266.018 12.479 266.052 12.562C266.086 12.645 266.103 12.7158 266.103 12.7744V12.7817ZM277.873 15.6748C277.873 15.7432 277.846 15.8213 277.792 15.9092C277.744 15.9922 277.675 16.0776 277.587 16.1655C277.5 16.2534 277.397 16.3413 277.28 16.4292C277.167 16.5122 277.05 16.5854 276.928 16.6489C276.645 16.7954 276.354 16.8979 276.057 16.9565C275.764 17.0151 275.471 17.0371 275.178 17.0225C274.963 17.0127 274.743 16.9639 274.519 16.876C274.294 16.7832 274.089 16.6562 273.903 16.4951C273.723 16.3291 273.571 16.1289 273.449 15.8945C273.327 15.6553 273.259 15.3843 273.244 15.0815C273.229 15.1108 273.205 15.1597 273.171 15.228C273.137 15.2915 273.088 15.3843 273.024 15.5063C272.966 15.6284 272.89 15.7822 272.797 15.9678C272.709 16.1533 272.6 16.3755 272.468 16.6343C272.336 16.8931 272.194 17.1494 272.043 17.4033C271.892 17.6523 271.743 17.8892 271.596 18.1138C271.45 18.3384 271.311 18.541 271.179 18.7217C271.047 18.9023 270.937 19.0513 270.849 19.1685C270.737 19.3198 270.622 19.4419 270.505 19.5347C270.388 19.6274 270.278 19.6958 270.175 19.7397C270.073 19.7886 269.982 19.8203 269.904 19.835C269.826 19.8496 269.765 19.8569 269.721 19.8569C269.667 19.8569 269.609 19.8423 269.545 19.813C269.487 19.7886 269.428 19.7568 269.37 19.7178C269.316 19.6787 269.267 19.6323 269.223 19.5786C269.179 19.5298 269.15 19.4785 269.135 19.4248C269.13 19.2783 269.116 19.1147 269.091 18.9341C269.072 18.7485 269.038 18.541 268.989 18.3115C268.94 18.0771 268.874 17.8208 268.791 17.5425C268.708 17.2642 268.605 16.9565 268.483 16.6196C268.22 15.9312 268.037 15.311 267.934 14.7593C267.832 14.2075 267.78 13.7437 267.78 13.3677C267.78 13.0942 267.858 12.8745 268.015 12.7085C268.171 12.5425 268.383 12.4595 268.652 12.4595C268.847 12.4595 268.984 12.5229 269.062 12.6499C269.14 12.7769 269.179 12.9282 269.179 13.104C269.179 13.2505 269.157 13.3945 269.113 13.5361C269.069 13.6777 269.047 13.8218 269.047 13.9683C269.047 14.0464 269.057 14.1685 269.077 14.3345C269.096 14.4956 269.123 14.6738 269.157 14.8691C269.191 15.0645 269.23 15.2646 269.274 15.4697C269.323 15.6699 269.375 15.8457 269.428 15.9971C269.526 16.2754 269.614 16.5513 269.692 16.8247C269.77 17.0933 269.836 17.3423 269.89 17.5718C269.948 17.7964 269.997 17.9893 270.036 18.1504C270.075 18.3066 270.104 18.4141 270.124 18.4727C270.163 18.4775 270.222 18.4385 270.3 18.3555C270.378 18.2725 270.463 18.165 270.556 18.0332C270.654 17.9014 270.756 17.7524 270.864 17.5864C270.976 17.4155 271.081 17.2471 271.179 17.0811C271.281 16.9102 271.374 16.749 271.457 16.5977C271.545 16.4414 271.616 16.3096 271.669 16.2021C271.743 16.0605 271.823 15.8896 271.911 15.6895C271.999 15.4893 272.084 15.2817 272.167 15.0669C272.255 14.8472 272.333 14.6348 272.402 14.4297C272.475 14.2197 272.531 14.0366 272.57 13.8804C272.629 13.6558 272.717 13.4897 272.834 13.3823C272.951 13.27 273.132 13.2188 273.376 13.2285C273.449 13.2285 273.525 13.2432 273.603 13.2725C273.681 13.2969 273.752 13.3384 273.815 13.397C273.879 13.4556 273.93 13.5312 273.969 13.624C274.013 13.7119 274.035 13.8193 274.035 13.9463C274.04 14.3125 274.079 14.6348 274.152 14.9131C274.226 15.1865 274.326 15.416 274.453 15.6016C274.58 15.7871 274.729 15.9287 274.899 16.0264C275.07 16.124 275.258 16.1777 275.463 16.1875C275.668 16.1973 275.893 16.1777 276.137 16.1289C276.386 16.0801 276.608 16.0068 276.804 15.9092C276.999 15.8115 277.172 15.7236 277.324 15.6455C277.475 15.5674 277.6 15.5308 277.697 15.5356C277.814 15.5405 277.873 15.5869 277.873 15.6748ZM286.069 13.9463C286.069 14.0195 286.015 14.1489 285.908 14.3345C285.654 14.7007 285.368 15.0669 285.051 15.4331C284.738 15.7993 284.404 16.1484 284.047 16.4805C283.696 16.8076 283.327 17.1152 282.941 17.4033C282.561 17.6865 282.175 17.9331 281.784 18.1431C281.394 18.3481 281.003 18.5068 280.612 18.6191C280.227 18.7314 279.853 18.7852 279.492 18.7803C278.71 18.7803 278.103 18.5532 277.668 18.0991C277.238 17.645 277.023 16.959 277.023 16.041C277.023 15.2744 277.141 14.5298 277.375 13.8071C277.614 13.0845 278.02 12.3887 278.591 11.7197C278.698 11.6025 278.818 11.4902 278.95 11.3828C279.086 11.2754 279.228 11.1802 279.375 11.0972C279.526 11.0142 279.68 10.9482 279.836 10.8994C279.997 10.8506 280.158 10.8213 280.319 10.8115C280.358 10.8115 280.412 10.8164 280.48 10.8262C280.549 10.8359 280.622 10.853 280.7 10.8774C280.778 10.9019 280.854 10.9336 280.927 10.9727C281 11.0068 281.059 11.0508 281.103 11.1045C281.24 11.2607 281.347 11.4219 281.425 11.5879C281.508 11.7539 281.555 11.937 281.564 12.1372C281.574 12.3618 281.547 12.584 281.484 12.8037C281.425 13.0186 281.323 13.2407 281.176 13.4702C281.035 13.6948 280.847 13.9292 280.612 14.1733C280.378 14.4126 280.095 14.6714 279.763 14.9497C279.553 15.1255 279.318 15.3208 279.06 15.5356C278.806 15.7456 278.498 15.9678 278.137 16.2021C278.137 16.6758 278.278 17.0371 278.562 17.2861C278.85 17.5303 279.243 17.6523 279.741 17.6523C280.019 17.6523 280.3 17.6157 280.583 17.5425C280.866 17.4692 281.145 17.374 281.418 17.2568C281.691 17.1348 281.955 16.998 282.209 16.8467C282.468 16.6904 282.709 16.5317 282.934 16.3706C283.349 16.0679 283.725 15.7676 284.062 15.4697C284.399 15.167 284.733 14.8496 285.065 14.5176L285.461 14.1221C285.7 13.9121 285.874 13.8071 285.981 13.8071C286.04 13.8071 286.069 13.8535 286.069 13.9463ZM280.473 12.4888C280.468 12.4155 280.456 12.3447 280.437 12.2764C280.422 12.2031 280.397 12.1396 280.363 12.0859C280.329 12.0322 280.29 11.9907 280.246 11.9614C280.202 11.9272 280.151 11.9102 280.092 11.9102C279.833 11.9248 279.575 12.0835 279.316 12.3862C279.057 12.6841 278.813 13.0796 278.583 13.5728C278.53 13.6802 278.481 13.8022 278.437 13.939C278.398 14.0708 278.359 14.2075 278.32 14.3491C278.286 14.4858 278.254 14.6226 278.225 14.7593C278.2 14.896 278.178 15.0181 278.159 15.1255C278.413 14.9351 278.647 14.7593 278.862 14.5981C279.077 14.437 279.277 14.271 279.462 14.1001C279.58 13.9927 279.699 13.8779 279.821 13.7559C279.943 13.6289 280.053 13.4971 280.151 13.3604C280.253 13.2236 280.334 13.082 280.393 12.9355C280.451 12.7891 280.478 12.6401 280.473 12.4888ZM295.422 16.3926C295.422 16.4219 295.41 16.4683 295.385 16.5317C295.366 16.5952 295.341 16.6611 295.312 16.7295C295.283 16.793 295.251 16.8564 295.217 16.9199C295.188 16.9785 295.163 17.02 295.144 17.0444C294.953 17.3228 294.755 17.5791 294.55 17.8135C294.345 18.0479 294.128 18.2529 293.898 18.4287C293.674 18.5996 293.432 18.7339 293.173 18.8315C292.919 18.9243 292.646 18.9707 292.353 18.9707C292.236 18.9707 292.111 18.9438 291.979 18.8901C291.853 18.8364 291.728 18.7607 291.606 18.6631C291.489 18.5654 291.376 18.4507 291.269 18.3188C291.162 18.187 291.071 18.043 290.998 17.8867C290.91 17.7012 290.832 17.4888 290.764 17.2495C290.7 17.0054 290.646 16.7441 290.603 16.4658C290.563 16.1875 290.534 15.897 290.515 15.5942C290.495 15.2866 290.485 14.9717 290.485 14.6494C289.875 15.7871 289.084 16.7979 288.112 17.6816C287.136 18.5703 286.125 19.0146 285.08 19.0146C284.792 19.0146 284.572 18.8608 284.421 18.5532C284.27 18.2505 284.194 17.9355 284.194 17.6084C284.194 17.1689 284.23 16.8418 284.304 16.627C284.509 16.002 284.743 15.416 285.007 14.8691C285.275 14.3223 285.6 13.7852 285.981 13.2578C286.23 12.916 286.513 12.5742 286.831 12.2324C287.153 11.8906 287.456 11.6465 287.739 11.5C288.09 11.3096 288.596 11.2144 289.255 11.2144C289.484 11.2144 289.68 11.3413 289.841 11.5952C290.002 11.8491 290.124 12.1445 290.207 12.4814C290.29 12.8379 290.332 13.1162 290.332 13.3164C290.405 13.0771 290.471 12.8354 290.529 12.5913C290.588 12.3423 290.639 12.0859 290.683 11.8223C290.727 11.5586 290.766 11.2827 290.8 10.9946C290.839 10.7017 290.874 10.3892 290.903 10.0571C290.913 9.96924 290.922 9.85693 290.932 9.72021C290.942 9.5835 290.954 9.42236 290.969 9.23682C290.998 8.85596 291.027 8.53613 291.057 8.27734C291.086 8.01367 291.125 7.84277 291.174 7.76465C291.291 7.56445 291.496 7.46436 291.789 7.46436C291.936 7.46436 292.08 7.49609 292.221 7.55957C292.373 7.61816 292.448 7.70117 292.448 7.80859C292.448 7.86719 292.436 7.9624 292.412 8.09424C292.392 8.22607 292.363 8.39697 292.324 8.60693C292.285 8.81689 292.231 9.07812 292.163 9.39062C292.099 9.69824 292.028 10.0669 291.95 10.4966C291.945 10.5454 291.931 10.6431 291.906 10.7896C291.882 10.936 291.855 11.0923 291.826 11.2583C291.796 11.4194 291.77 11.5708 291.745 11.7124C291.721 11.8491 291.706 11.9346 291.701 11.9688C291.638 12.3643 291.591 12.7378 291.562 13.0894C291.533 13.4409 291.518 13.7949 291.518 14.1514C291.518 15.3965 291.618 16.3267 291.818 16.9419C292.023 17.5571 292.285 17.8647 292.602 17.8647C292.788 17.8647 292.966 17.8379 293.137 17.7842C293.308 17.7256 293.476 17.6401 293.642 17.5278C293.813 17.4155 293.986 17.2764 294.162 17.1104C294.338 16.9395 294.523 16.7417 294.719 16.5171C294.831 16.3901 294.934 16.2778 295.026 16.1802C295.119 16.0825 295.207 16.0337 295.29 16.0337C295.344 16.0337 295.378 16.0752 295.393 16.1582C295.412 16.2363 295.422 16.3145 295.422 16.3926ZM289.731 14.4077C289.604 14.3784 289.506 14.3149 289.438 14.2173C289.375 14.1196 289.343 14.0098 289.343 13.8877C289.343 13.79 289.357 13.646 289.387 13.4556C289.416 13.2651 289.431 13.1187 289.431 13.0161C289.431 12.9282 289.406 12.8306 289.357 12.7231C289.313 12.6108 289.255 12.5083 289.182 12.4155C289.108 12.3179 289.025 12.2373 288.933 12.1738C288.845 12.1055 288.757 12.0713 288.669 12.0713C288.41 12.0713 288.059 12.3423 287.614 12.8843C287.39 13.1626 287.182 13.4287 286.992 13.6826C286.806 13.9365 286.635 14.188 286.479 14.437C286.308 14.7056 286.162 14.9521 286.04 15.1768C285.922 15.4014 285.822 15.6016 285.739 15.7773C285.451 16.3975 285.307 16.8857 285.307 17.2422C285.307 17.6963 285.461 17.9233 285.769 17.9233C286.042 17.9233 286.418 17.7646 286.896 17.4473C287.39 17.1104 287.771 16.8076 288.039 16.5391C288.317 16.2461 288.549 15.9995 288.735 15.7993C288.92 15.5991 289.067 15.438 289.174 15.3159C289.282 15.1938 289.379 15.0571 289.467 14.9058C289.56 14.7544 289.648 14.5884 289.731 14.4077Z" fill="white"/>
<path d="M123.947 18.1284C123.947 18.3286 123.837 18.5264 123.618 18.7217C123.408 18.917 123.198 19.0146 122.988 19.0146C122.758 19.0146 122.185 18.6289 121.267 17.8574C120.993 17.623 120.72 17.3569 120.446 17.0591C120.178 16.7563 119.875 16.3975 119.538 15.9824C119.484 15.9141 119.418 15.8335 119.34 15.7407C119.262 15.6479 119.169 15.543 119.062 15.4258C118.857 15.1865 118.676 14.979 118.52 14.8032C118.369 14.6226 118.229 14.437 118.103 14.2466C117.868 14.4272 117.619 14.6396 117.355 14.8838C117.092 15.123 116.843 15.3745 116.608 15.6382C116.135 16.1509 115.693 16.666 115.283 17.1836C115.214 17.2666 115.134 17.3667 115.041 17.4839C114.948 17.6011 114.841 17.7354 114.719 17.8867C114.597 18.0381 114.484 18.1821 114.382 18.3188C114.284 18.4507 114.194 18.5776 114.111 18.6997C114.086 18.7388 114.055 18.7925 114.016 18.8608C113.977 18.9292 113.935 18.9976 113.891 19.0659C113.847 19.1343 113.801 19.1929 113.752 19.2417C113.708 19.2905 113.671 19.3101 113.642 19.3003C113.525 19.3003 113.417 19.2002 113.32 19C113.227 18.8096 113.181 18.5703 113.181 18.2822C113.181 17.9209 113.364 17.501 113.73 17.0225C114.101 16.5488 114.567 16.0459 115.129 15.5137C115.412 15.2451 115.678 14.9912 115.927 14.752C116.181 14.5127 116.423 14.2832 116.652 14.0635C117.106 13.6338 117.333 13.3481 117.333 13.2065C117.333 13.0942 117.08 12.5815 116.572 11.6685C116.318 11.2095 116.105 10.8262 115.935 10.5186C115.764 10.2061 115.632 9.96436 115.539 9.79346C115.358 9.45166 115.268 9.18555 115.268 8.99512C115.268 8.7998 115.329 8.57031 115.451 8.30664C115.578 8.0332 115.717 7.89648 115.869 7.89648C116.035 7.89648 116.174 8.0332 116.286 8.30664C116.325 8.38477 116.367 8.47998 116.411 8.59229C116.459 8.69971 116.516 8.82422 116.579 8.96582C116.643 9.10742 116.701 9.2417 116.755 9.36865C116.809 9.49561 116.862 9.62012 116.916 9.74219C117.009 9.96191 117.106 10.1743 117.209 10.3794C117.316 10.5796 117.426 10.7773 117.539 10.9727C117.656 11.168 117.788 11.3804 117.934 11.6099C118.085 11.8394 118.251 12.0884 118.432 12.3569C118.706 12.0493 118.989 11.7515 119.282 11.4634L120.271 10.4746C120.632 10.1133 120.883 9.85449 121.025 9.69824C121.093 9.625 121.174 9.53467 121.267 9.42725C121.364 9.31494 121.464 9.19287 121.567 9.06104C121.621 8.99268 121.667 8.93164 121.706 8.87793C121.745 8.82422 121.782 8.77783 121.816 8.73877C121.85 8.69482 121.892 8.64111 121.94 8.57764C121.994 8.50928 122.055 8.43359 122.124 8.35059C122.329 8.0918 122.617 7.9624 122.988 7.9624C123.09 7.9624 123.181 7.98682 123.259 8.03564C123.337 8.07959 123.403 8.14062 123.457 8.21875C123.51 8.29199 123.549 8.37988 123.574 8.48242C123.603 8.58496 123.618 8.68994 123.618 8.79736C123.618 9.1001 123.408 9.25146 122.988 9.25146C122.91 9.25146 122.824 9.29053 122.731 9.36865C122.639 9.44678 122.543 9.54443 122.446 9.66162C122.353 9.77393 122.26 9.89355 122.167 10.0205C122.08 10.1475 122.004 10.2549 121.94 10.3428C121.755 10.5967 121.569 10.8286 121.384 11.0386C121.203 11.2437 121.025 11.4316 120.849 11.6025C120.776 11.6709 120.668 11.771 120.527 11.9028C120.385 12.0347 120.205 12.1982 119.985 12.3936C119.77 12.5889 119.58 12.7671 119.414 12.9282C119.252 13.0894 119.116 13.2334 119.003 13.3604C119.228 13.6387 119.45 13.9121 119.67 14.1807C119.89 14.4443 120.109 14.7031 120.329 14.957C120.549 15.2109 120.773 15.46 121.003 15.7041C121.232 15.9482 121.472 16.1899 121.721 16.4292C121.97 16.6685 122.207 16.876 122.431 17.0518C122.661 17.2275 122.883 17.3765 123.098 17.4985C123.205 17.562 123.322 17.6182 123.449 17.667C123.518 17.6914 123.574 17.7109 123.618 17.7256C123.662 17.7402 123.688 17.75 123.698 17.7549C123.864 17.8135 123.947 17.938 123.947 18.1284Z" fill="#808E99"/>
<g clip-path="url(#clip0)">
<path d="M5.99998 9C2.69155 9 0 11.8115 0 15.2674C0 18.7233 2.69155 21.5348 5.99998 21.5348C9.30841 21.5348 12 18.7233 12 15.2674C12 11.8115 9.30841 9 5.99998 9ZM5.99998 20.7194C3.122 20.7194 0.780587 18.2737 0.780587 15.2674C0.780587 12.2611 3.122 9.81537 5.99998 9.81537C8.87796 9.81537 11.2194 12.2611 11.2194 15.2674C11.2194 18.2736 8.878 20.7194 5.99998 20.7194Z" fill="white"/>
<path d="M8.44759 16.2886C8.26598 16.1673 8.02465 16.2227 7.90847 16.4123C7.53145 17.0281 6.88924 17.3957 6.19057 17.3957C5.06705 17.3957 4.15302 16.4409 4.15302 15.2673C4.15302 14.0937 5.06705 13.1389 6.19057 13.1389C6.86851 13.1389 7.50022 13.4898 7.88045 14.0776C8.0011 14.2641 8.24364 14.3132 8.42235 14.1871C8.60094 14.0611 8.6479 13.8076 8.52721 13.6211C8.00171 12.8085 7.12814 12.3235 6.19057 12.3235C4.63664 12.3235 3.37244 13.644 3.37244 15.2673C3.37244 16.8905 4.63664 18.211 6.19057 18.211C7.15681 18.211 8.04485 17.7029 8.56607 16.8517C8.6822 16.662 8.62917 16.4099 8.44759 16.2886Z" fill="white"/>
</g>
<defs>
<clipPath id="clip0">
<rect width="12" height="12.5348" fill="white" transform="translate(0 9)"/>
</clipPath>
</defs>
</svg>
