<svg width="31" height="35" viewBox="0 0 31 35" fill="none" xmlns="http://www.w3.org/2000/svg">
<g clip-path="url(#clip0)">
<path d="M21.2425 0H8.80214C3.94864 0 0 4.5999 0 10.2539V24.7461C0 30.4001 3.94864 35 8.80214 35H21.2425C26.096 35 30.0446 30.4001 30.0446 24.7461V10.2539C30.0446 4.5999 26.096 0 21.2425 0ZM28.871 24.7461C28.871 29.6462 25.4489 33.6328 21.2425 33.6328H8.80214C4.59577 33.6328 1.17362 29.6462 1.17362 24.7461V10.2539C1.17362 5.35377 4.59577 1.36719 8.80214 1.36719H21.2425C25.4489 1.36719 28.871 5.35377 28.871 10.2539V24.7461Z" fill="#FED24B"/>
<path d="M21.2425 3.00781H8.80215C5.37231 3.00781 2.58197 6.25837 2.58197 10.2539V24.7461C2.58197 28.7416 5.37231 31.9922 8.80215 31.9922H12.3817C12.7058 31.9922 12.9685 31.6861 12.9685 31.3086C12.9685 30.931 12.7058 30.625 12.3817 30.625H8.80215C6.0195 30.625 3.75559 27.9877 3.75559 24.7461V10.2539C3.75559 7.01231 6.0195 4.375 8.80215 4.375H21.2425C24.0252 4.375 26.2891 7.01231 26.2891 10.2539V24.7461C26.2891 27.9877 24.0252 30.625 21.2425 30.625H17.7021C17.378 30.625 17.1153 30.931 17.1153 31.3086C17.1153 31.6861 17.378 31.9922 17.7021 31.9922H21.2425C24.6723 31.9922 27.4627 28.7416 27.4627 24.7461V10.2539C27.4627 6.25837 24.6723 3.00781 21.2425 3.00781Z" fill="#FED24B"/>
<path d="M15.4372 30.8253C15.3281 30.6981 15.1767 30.625 15.0223 30.625C14.868 30.625 14.7166 30.6981 14.6075 30.8253C14.4983 30.9524 14.4355 31.1288 14.4355 31.3086C14.4355 31.4884 14.4983 31.6647 14.6075 31.7919C14.7166 31.919 14.868 31.9922 15.0223 31.9922C15.1767 31.9922 15.3281 31.919 15.4372 31.7919C15.5463 31.6647 15.6091 31.4884 15.6091 31.3086C15.6091 31.1288 15.5463 30.9524 15.4372 30.8253Z" fill="#FED24B"/>
<path d="M10.3179 10.6442C10.0962 10.3687 9.72496 10.3546 9.48841 10.6127L9.46242 10.6412C9.22669 10.9003 9.2159 11.3329 9.43836 11.6075C9.55378 11.75 9.70935 11.8219 9.86526 11.8219C10.0097 11.8219 10.1545 11.7602 10.2679 11.6355L10.2908 11.6104C10.5273 11.3523 10.5394 10.9197 10.3179 10.6442Z" fill="#FED24B"/>
<path d="M15.0223 8.06641C13.7334 8.06641 12.4507 8.4281 11.3127 9.11237C11.0247 9.28553 10.9118 9.69787 11.0604 10.0334C11.2091 10.3688 11.5631 10.5003 11.851 10.3273C12.8372 9.73424 13.9041 9.43359 15.0223 9.43359C18.8404 9.43359 21.9467 13.0522 21.9467 17.5C21.9467 21.9478 18.8404 25.5664 15.0223 25.5664C11.2042 25.5664 8.09797 21.9478 8.09797 17.5C8.09797 16.1042 8.40868 14.7289 8.99655 13.523C9.15657 13.1947 9.05787 12.7775 8.77602 12.591C8.49418 12.4046 8.13605 12.5195 7.97597 12.8479C7.28799 14.2592 6.92435 15.8679 6.92435 17.5C6.92435 22.7017 10.5571 26.9336 15.0223 26.9336C19.4875 26.9336 23.1203 22.7017 23.1203 17.5C23.1203 12.2983 19.4875 8.06641 15.0223 8.06641Z" fill="#FED24B"/>
<path d="M15.0223 11.3477C12.1102 11.3477 9.74103 14.1076 9.74103 17.5C9.74103 20.8924 12.1102 23.6523 15.0223 23.6523C17.9344 23.6523 20.3036 20.8924 20.3036 17.5C20.3036 14.1076 17.9344 11.3477 15.0223 11.3477ZM15.0223 22.2852C12.7573 22.2852 10.9146 20.1385 10.9146 17.5C10.9146 14.8615 12.7573 12.7148 15.0223 12.7148C17.2873 12.7148 19.13 14.8615 19.13 17.5C19.13 20.1385 17.2873 22.2852 15.0223 22.2852Z" fill="#FED24B"/>
<path d="M22.7242 5.93018C21.4947 5.93018 20.4943 7.0955 20.4943 8.52783C20.4943 9.96017 21.4947 11.1255 22.7242 11.1255C23.9537 11.1255 24.9541 9.96017 24.9541 8.52783C24.9541 7.0955 23.9537 5.93018 22.7242 5.93018ZM22.7242 9.7583C22.1418 9.7583 21.6679 9.2063 21.6679 8.52783C21.6679 7.84937 22.1418 7.29736 22.7242 7.29736C23.3066 7.29736 23.7805 7.84937 23.7805 8.52783C23.7805 9.2063 23.3066 9.7583 22.7242 9.7583Z" fill="#FED24B"/>
</g>
<defs>
<clipPath id="clip0">
<rect width="30.0446" height="35" fill="white"/>
</clipPath>
</defs>
</svg>
