<svg width="35" height="35" viewBox="0 0 35 35" fill="none" xmlns="http://www.w3.org/2000/svg">
<path d="M33.5389 10.4892C32.6026 8.3501 31.2669 6.4452 29.5691 4.82774C29.3498 4.61891 29.003 4.62725 28.7942 4.84654C28.5854 5.0657 28.5938 5.41256 28.813 5.62126C32.0959 8.74877 33.9039 12.9674 33.9039 17.5C33.9039 26.5452 26.5452 33.904 17.4999 33.904C8.45469 33.904 1.09601 26.5452 1.09601 17.5C1.09601 8.45482 8.45482 1.09601 17.5 1.09601C20.8042 1.09601 23.9894 2.07396 26.7109 3.92396C26.9611 4.09411 27.302 4.0291 27.4722 3.77891C27.6423 3.52857 27.5773 3.18773 27.3271 3.01759C24.423 1.04351 21.025 0 17.5 0C12.8256 0 8.43097 1.82027 5.12565 5.12565C1.82034 8.43097 0 12.8256 0 17.5C0 22.1744 1.82034 26.569 5.12565 29.8743C8.43097 33.1797 12.8256 35 17.5 35C22.1744 35 26.569 33.1797 29.8743 29.8743C33.1797 26.569 35 22.1744 35 17.5C35 15.0629 34.5084 12.704 33.5389 10.4892Z" fill="#03CAEA"/>
<path d="M27.0684 7.91798L16.529 12.8242C16.2546 12.9519 16.1357 13.278 16.2635 13.5524C16.3913 13.8268 16.7173 13.9458 16.9915 13.8179L23.4929 10.7914L20.3322 13.3502L13.0788 19.222L9.11147 17.4862L14.6709 14.8982C14.9453 14.7704 15.0641 14.4445 14.9364 14.1701C14.8087 13.8957 14.4825 13.7767 14.2083 13.9045L8.22416 16.6903C7.90602 16.8383 7.70518 17.1623 7.71325 17.513C7.72111 17.8561 7.92851 18.165 8.2429 18.3025L12.6727 20.2405L13.9701 28.0248C14.05 28.5061 14.7017 28.6432 14.969 28.235L18.6492 22.6178L25.609 25.8657C26.1666 26.1262 26.8302 25.7282 26.8661 25.1161L27.8467 8.44674C27.8477 8.43129 27.8476 8.41543 27.8473 8.39992C27.8363 8.01198 27.4196 7.75556 27.0684 7.91798ZM14.6054 25.1705L13.7575 20.0826L22.396 13.0895L15.7844 20.5025C15.725 20.5692 15.6808 20.6531 15.6603 20.7403L14.6054 25.1705ZM15.7697 25.0132L16.5708 21.648L17.6457 22.1497L15.7697 25.0132ZM18.2526 21.2234L17.0928 20.6822L22.7987 14.2847L21.9734 15.5444L18.2526 21.2234ZM25.7903 24.741L19.2561 21.6917L26.6319 10.434L25.7903 24.741Z" fill="#03CAEA"/>
</svg>
