<svg width="35" height="35" viewBox="0 0 35 35" fill="none" xmlns="http://www.w3.org/2000/svg">
<path d="M29.8743 5.12565C26.569 1.82027 22.1743 0 17.5 0C12.8257 0 8.43097 1.82027 5.12565 5.12565C1.82027 8.43097 0 12.8257 0 17.5C0 22.1743 1.82027 26.569 5.12565 29.8743C8.43097 33.1797 12.8257 35 17.5 35C22.1743 35 26.569 33.1797 29.8743 29.8743C33.1797 26.569 35 22.1743 35 17.5C35 12.8257 33.1797 8.43097 29.8743 5.12565ZM17.5 33.8948C8.45988 33.8948 1.10523 26.5401 1.10523 17.5C1.10523 8.45988 8.45988 1.10523 17.5 1.10523C26.5401 1.10523 33.8948 8.45988 33.8948 17.5C33.8948 26.5401 26.5401 33.8948 17.5 33.8948Z" fill="#01BEE4"/>
<path d="M29.8288 11.1009C29.6624 10.9571 29.4215 10.9325 29.2221 11.025C28.9361 11.1576 28.6439 11.2741 28.3466 11.3741C28.6415 10.9719 28.877 10.525 29.0431 10.0458C29.1116 9.84815 29.0775 9.62359 28.9358 9.46972C28.7586 9.27735 28.4763 9.23688 28.2548 9.36308C27.4471 9.82334 26.576 10.1359 25.6618 10.294C24.6393 9.35549 23.3239 8.84204 21.9265 8.84204C19.034 8.84204 16.6527 11.0734 16.4134 13.9051C15.8159 13.8118 14.6467 13.4784 14.3672 13.3871C12.3451 12.6983 10.5235 11.4857 9.09842 9.87974C9.01392 9.78451 8.90263 9.71369 8.77747 9.69079C8.52591 9.64485 8.28726 9.77187 8.17967 9.9874C7.8255 10.6972 7.64585 11.4604 7.64585 12.2559C7.64585 13.356 7.99024 14.3929 8.6106 15.2453C8.41728 15.209 8.21152 15.2768 8.07658 15.4428C7.99899 15.5383 7.96016 15.6594 7.95558 15.7823C7.95353 15.8384 7.95169 15.8946 7.95169 15.9513C7.95169 17.4427 8.6346 18.7982 9.73833 19.6829C9.66211 19.7345 9.59785 19.8057 9.55355 19.8936C9.48772 20.0237 9.48041 20.1768 9.52389 20.3159C10.006 21.858 11.2036 23.0324 12.6884 23.5138C11.3435 24.3325 9.78796 24.7739 8.1986 24.7739C8.05826 24.7739 7.91382 24.7703 7.76937 24.7633C7.49279 24.7506 7.24471 24.9437 7.19714 25.2243C7.15831 25.4532 7.27657 25.6822 7.47652 25.8001C9.50803 26.9984 11.8333 27.6316 14.2024 27.6316C17.0298 27.6316 19.723 26.751 21.9685 25.1211C22.2455 24.92 22.2761 24.5181 22.0341 24.276L22.0339 24.2758C21.8389 24.0809 21.5322 24.0599 21.3089 24.2216C19.3077 25.6707 16.8514 26.5263 14.2023 26.5263C12.7176 26.5263 11.2518 26.255 9.87826 25.7326C11.5396 25.4409 13.11 24.7204 14.4179 23.6332C14.576 23.5018 14.6592 23.294 14.6194 23.0924C14.5685 22.8349 14.3479 22.6528 14.0926 22.6456C12.7468 22.6075 11.5455 21.864 10.9003 20.7275C11.208 20.7127 11.5159 20.6706 11.8191 20.6016C12.0502 20.549 12.2373 20.3643 12.2674 20.1291C12.3036 19.8459 12.1215 19.5873 11.8515 19.5209C10.4079 19.1654 9.34629 17.9921 9.10751 16.5639C9.53065 16.6631 9.97048 16.7069 10.4095 16.6935C10.6805 16.6854 10.9097 16.481 10.9422 16.2037C10.9678 15.9852 10.8518 15.7736 10.664 15.6591C9.46571 14.9289 8.75095 13.6581 8.75095 12.256C8.75095 11.9132 8.79353 11.5781 8.87803 11.2535C10.3268 12.6859 12.085 13.7775 14.0109 14.4334C14.0285 14.4394 15.9313 15.0318 16.652 15.0348C16.699 15.0359 16.9237 15.0459 16.9241 15.0459C17.1557 15.0552 17.3802 14.9147 17.4677 14.6818C17.4929 14.6149 17.502 14.543 17.5003 14.4716C17.4996 14.4394 17.4988 14.4072 17.4988 14.3748C17.4988 11.9335 19.4849 9.94734 21.9263 9.94734C23.1217 9.94734 24.2422 10.4171 25.0817 11.27C25.2031 11.3935 25.3744 11.4543 25.546 11.4305C26.1084 11.3525 26.6573 11.2238 27.1892 11.0455C26.906 11.3562 26.5722 11.6223 26.1978 11.8319C25.9455 11.9732 25.8384 12.2802 25.9574 12.5439L25.9655 12.562C26.0628 12.7774 26.2862 12.9068 26.5217 12.8846C26.9788 12.841 27.4296 12.7657 27.872 12.6596C27.4806 13.0632 27.0503 13.4298 26.5835 13.7569C26.4312 13.8636 26.3436 14.0404 26.3499 14.2262L26.3511 14.2611C26.3524 14.2989 26.3538 14.3368 26.3538 14.3748V14.4248C26.3411 17.5208 25.1602 20.3484 23.232 22.4908C23.035 22.7096 23.0473 23.0457 23.2555 23.2539C23.4819 23.4803 23.8516 23.4693 24.0659 23.2312C26.2323 20.8244 27.4308 17.7502 27.4588 14.4879C28.4447 13.7535 29.2768 12.8558 29.9353 11.8155C30.0801 11.5869 30.0394 11.2832 29.8288 11.1009Z" fill="#01BEE4"/>
</svg>
